<?xml version="1.0" encoding="utf-8"?>
<!-- Uploaded to: SVG Repo, www.svgrepo.com, Generator: SVG Repo Mixer Tools -->
<svg fill="#000000" height="800px" width="800px" version="1.2" baseProfile="tiny" id="Layer_1" xmlns="http://www.w3.org/2000/svg" xmlns:xlink="http://www.w3.org/1999/xlink"
	  viewBox="0 0 256 256" xml:space="preserve">
<path id="XMLID_10_" d="M169.1,5.5c0.3-1.9,2-3.3,3.9-3c1.9,0.2,3.3,2,3,3.9c-0.2,1.8-1.7,3-3.5,3c-0.2,0-0.3,0-0.5,0
	C170.2,9.2,168.9,7.5,169.1,5.5z M149.4,13.5c0.5,0,1.1-0.1,1.6-0.4c1.7-0.9,2.4-2.9,1.5-4.6c-0.9-1.7-3-2.5-4.7-1.5c0,0,0,0,0,0
	c-1.7,1-2.4,2.9-1.5,4.6C146.9,12.8,148.2,13.5,149.4,13.5z M160.7,9.9c0.2,0,0.4,0.1,0.6,0.1h0c1.9-1,3.2-2.3,2.9-4.2
	c-0.3-1.9-2.1-3.3-4-2.9c-1.9,0.3-3.2,2.2-2.9,4.1C157.6,8.6,159,9.9,160.7,9.9z M194,19.4c1,0,1.9-0.4,2.6-1.2
	c1.3-1.4,1.2-3.6-0.3-4.9c-1.4-1.3-3.7-1.2-4.9,0.3c-1.3,1.4-1.2,3.6,0.3,5C192.3,19.1,193.1,19.4,194,19.4z M196.3,13.3
	C196.3,13.3,196.3,13.3,196.3,13.3C196.3,13.3,196.3,13.3,196.3,13.3C196.3,13.3,196.3,13.3,196.3,13.3z M182.5,12.5
	c0.5,0.2,1,0.3,1.5,0.3c1.3,0,2.6-0.8,3.2-2c0.8-1.8,0-3.8-1.7-4.6s-3.8-0.1-4.7,1.7C180,9.6,180.8,11.7,182.5,12.5z M201.5,28.5
	c0.6,0,1.2-0.2,1.8-0.5c1.7-1,2.2-3.2,1.2-4.8c-1-1.7-3.2-2.2-4.8-1.2c-1.7,1-2.2,3.1-1.2,4.8C199.2,27.9,200.3,28.5,201.5,28.5z
	 M127.5,64.7c1.9,0,3.5-1.6,3.5-3.5c0-1.9-1.6-3.5-3.5-3.5c-1.9,0-3.5,1.6-3.5,3.5C124,63.2,125.6,64.7,127.5,64.7z M127.5,52.8
	c1.9,0,3.5-1.6,3.5-3.5c0-1.9-1.6-3.5-3.5-3.5c-1.9,0-3.5,1.6-3.5,3.5C124,51.2,125.6,52.8,127.5,52.8z M127.6,40.8
	c0.2,0.1,0.5,0.1,0.7,0.1c1.6,0,3.1-1.1,3.4-2.8c0.4-1.9-0.8-3.8-2.7-4.1c-1.9-0.4-3.8,0.8-4.1,2.7
	C124.5,38.6,125.7,40.4,127.6,40.8z M130.8,29.3c0.5,0.3,1.1,0.4,1.7,0.4c1.2,0,2.4-0.6,3.1-1.8c0.9-1.7,0.3-3.8-1.4-4.8
	c-1.7-0.9-3.8-0.3-4.8,1.4C128.5,26.3,129.1,28.4,130.8,29.3z M139.8,20.4c0.9,0,1.7-0.3,2.4-1c1.4-1.3,1.4-3.6,0.1-5
	c-1.3-1.4-3.5-1.4-4.9-0.1c-1.4,1.3-1.4,3.6-0.1,5C137.9,20,138.8,20.4,139.8,20.4z M207.3,116c-1.9,0-3.5,1.6-3.5,3.5
	c0,1.9,1.6,3.5,3.5,3.5s3.5-1.6,3.5-3.5C210.8,117.5,209.2,116,207.3,116z M207.3,175.6c-1.9,0-3.5,1.6-3.5,3.5
	c0,1.9,1.6,3.5,3.5,3.5s3.5-1.6,3.5-3.5C210.8,177.2,209.2,175.6,207.3,175.6z M202.7,36.8c0.4,1.6,1.8,2.7,3.4,2.7
	c0.3,0,0.6,0,0.8-0.1c1.9-0.5,3-2.4,2.6-4.2c-0.5-1.9-2.4-3-4.2-2.5C203.4,33.1,202.2,35,202.7,36.8z M207.3,127.9
	c-1.9,0-3.5,1.6-3.5,3.5c0,1.9,1.6,3.5,3.5,3.5s3.5-1.6,3.5-3.5C210.8,129.5,209.2,127.9,207.3,127.9z M207.3,139.8
	c-1.9,0-3.5,1.6-3.5,3.5s1.6,3.5,3.5,3.5s3.5-1.6,3.5-3.5S209.2,139.8,207.3,139.8z M203.8,47.8c0,1.9,1.6,3.5,3.5,3.5
	s3.5-1.6,3.5-3.5c0-1.9-1.6-3.5-3.5-3.5S203.8,45.9,203.8,47.8z M207.3,163.7c-1.9,0-3.5,1.6-3.5,3.5c0,1.9,1.6,3.5,3.5,3.5
	s3.5-1.6,3.5-3.5C210.8,165.3,209.2,163.7,207.3,163.7z M127.5,76.7c1.9,0,3.5-1.6,3.5-3.5c0-1.9-1.6-3.5-3.5-3.5
	c-1.9,0-3.5,1.6-3.5,3.5C124,75.1,125.6,76.7,127.5,76.7z M207.3,56.3c-1.9,0-3.5,1.6-3.5,3.5c0,1.9,1.6,3.5,3.5,3.5
	s3.5-1.6,3.5-3.5C210.8,57.8,209.2,56.3,207.3,56.3z M207.3,104c-1.9,0-3.5,1.6-3.5,3.5s1.6,3.5,3.5,3.5s3.5-1.6,3.5-3.5
	S209.2,104,207.3,104z M207.3,68.2c-1.9,0-3.5,1.6-3.5,3.5c0,1.9,1.6,3.5,3.5,3.5s3.5-1.6,3.5-3.5C210.8,69.8,209.2,68.2,207.3,68.2
	z M207.3,80.2c-1.9,0-3.5,1.6-3.5,3.5c0,1.9,1.6,3.5,3.5,3.5s3.5-1.6,3.5-3.5C210.8,81.7,209.2,80.2,207.3,80.2z M207.3,92.1
	c-1.9,0-3.5,1.6-3.5,3.5c0,1.9,1.6,3.5,3.5,3.5s3.5-1.6,3.5-3.5C210.8,93.7,209.2,92.1,207.3,92.1z M207.3,151.8
	c-1.9,0-3.5,1.6-3.5,3.5c0,1.9,1.6,3.5,3.5,3.5s3.5-1.6,3.5-3.5C210.8,153.3,209.2,151.8,207.3,151.8z M183,159L183,159
	c1.9,0,3.5-1.4,3.5-3.4c0-1.9-1.6-3.4-3.5-3.4c-1.9,0-3.5,1.5-3.5,3.4C179.5,157.6,181,159,183,159z M167.1,31.7
	c0.5,0.3,1.1,0.4,1.7,0.4c1.2,0,2.4-0.7,3.1-1.8c0.9-1.7,0.3-3.8-1.4-4.8s-3.8-0.3-4.8,1.4C164.8,28.6,165.4,30.8,167.1,31.7z
	 M183,171L183,171c1.9,0,3.5-1.4,3.5-3.4c0-1.9-1.6-3.4-3.5-3.4c-1.9,0-3.5,1.5-3.5,3.4C179.5,169.6,181.1,171,183,171z M143,42.4
	c0.7-1.8-0.2-3.8-2-4.5c-1.8-0.7-3.8,2.1-4.5,2.1c0,0,0,0,0,0c-0.7,2,0.2,3.7,2,4.4c0.4,0.2,0.9,0.2,1.3,0.2
	C141.2,44.6,142.5,43.8,143,42.4z M174.4,38.7c0.7,1,1.8,1.6,3,1.6c0.6,0,1.3-0.2,1.9-0.5c1.6-1,2.1-3.2,1.1-4.8
	c-1-1.6-3.2-2.1-4.8-1.1C173.8,34.9,173.3,37.1,174.4,38.7z M137.3,80C137.3,80,137.3,80,137.3,80c2,0,3.5-1.5,3.5-3.5
	c0-1.9-1.6-3.4-3.5-3.4c-1.9,0-3.5,1.5-3.5,3.5C133.8,78.6,135.3,80,137.3,80z M137.2,56.2c1.8,0,3.3-1.4,3.5-3.2
	c0.1-1.9-1.3-3.6-3.2-3.7c-1.9-0.1-3.6,1.3-3.7,3.2c-0.1,1.9,1.3,3.6,3.2,3.7C137.1,56.2,137.1,56.2,137.2,56.2z M137.2,68
	C137.2,68,137.2,68,137.2,68c2,0,3.5-1.5,3.5-3.4c0-1.9-1.6-3.4-3.5-3.4c-1.9,0-3.5,1.5-3.5,3.5C133.7,66.6,135.2,68,137.2,68z
	 M143.8,33.5c0.7,0.8,1.7,1.2,2.6,1.2c0.8,0,1.7-0.3,2.3-0.9c1.4-1.3,1.6-3.5,0.3-4.9c-1.3-1.4-3.5-1.6-4.9-0.3
	C142.7,29.9,142.6,32.1,143.8,33.5z M157.4,29.8c0.1,0-0.4,0,0.6,0v0c2-0.2,3.1-2,2.9-3.9c-0.2-1.9-2.2-3.3-4.1-3.1
	c-1.9,0.2-3.3,2-3.1,3.9C153.9,28.5,155.6,29.8,157.4,29.8z M182.4,51.4c1.9-0.4,3.1-2.3,2.7-4.1c-0.4-1.9-2.3-3.1-4.1-2.7
	c-1.9,0.4-3.1,2.3-2.7,4.1c0.3,1.7,1.8,2.8,3.4,2.8C182,51.4,182.2,51.4,182.4,51.4z M182.8,87.4c1.9,0,3.5-1.6,3.5-3.5
	c0-1.9-1.6-3.5-3.5-3.5c-1.9,0-3.5,1.6-3.5,3.5C179.3,85.8,180.8,87.4,182.8,87.4z M182.7,63C182.7,63,182.7,63,182.7,63
	c1.9,0,3.5-1.4,3.5-3.4c0-1.9-1.6-3.4-3.5-3.4c-1.9,0-3.5,1.5-3.5,3.4C179.2,61.6,180.8,63,182.7,63z M182.8,99.4
	c1.9,0,3.5-1.6,3.5-3.5c0-1.9-1.6-3.5-3.5-3.5c-1.9,0-3.5,1.6-3.5,3.5C179.3,97.8,180.9,99.4,182.8,99.4z M182.9,123L182.9,123
	c1.9,0,3.5-1.4,3.5-3.4c0-1.9-1.6-3.4-3.5-3.4c-1.9,0-3.5,1.5-3.5,3.4C179.4,121.6,180.9,123,182.9,123z M182.9,135
	C182.9,135,182.9,135,182.9,135c1.9,0,3.5-1.4,3.5-3.4c0-1.9-1.6-3.4-3.5-3.4c-1.9,0-3.5,1.5-3.5,3.4C179.4,133.6,181,135,182.9,135
	z M182.8,111.4c1.9,0,3.5-1.6,3.5-3.5c0-1.9-1.6-3.5-3.5-3.5c-1.9,0-3.5,1.6-3.5,3.5C179.3,109.8,180.9,111.4,182.8,111.4z
	 M182.9,147C182.9,147,182.9,147,182.9,147c1.9,0,3.5-1.4,3.5-3.4c0-1.9-1.6-3.4-3.5-3.4c-1.9,0-3.5,1.5-3.5,3.4
	C179.4,145.6,181,147,182.9,147z M182.7,75C182.8,75,182.8,75,182.7,75c1.9,0,3.5-1.4,3.5-3.4c0-1.9-1.6-3.4-3.5-3.4
	c-1.9,0-3.5,1.5-3.5,3.4C179.2,73.6,180.8,75,182.7,75z M130,176.5c25-3.5,43.4-24.5,43.4-49.5H130v-15.9
	c14-3.3,24.3-15.1,24.3-30.1H92c0,15,10,26.9,24,30.1V127H72.8c0,25,19.2,46,43.2,49.5v9.5H30.8c0,24,17.2,45.5,44.2,57.3V256h96
	v-12.7c27-11.8,44.5-33.3,44.5-57.3H130V176.5z M38.9,39.4c0.3,0.1,0.6,0.1,0.9,0.1c1.6,0,3-1.1,3.4-2.7c0.5-1.9-0.7-3.8-2.5-4.2
	c-1.9-0.5-3.8,0.7-4.2,2.5C35.8,37,37,38.9,38.9,39.4z M38.5,51.3c1.9,0,3.5-1.6,3.5-3.5c0-1.9-1.6-3.5-3.5-3.5
	c-1.9,0-3.5,1.6-3.5,3.5C35,49.8,36.6,51.3,38.5,51.3z M38.5,87.2c1.9,0,3.5-1.6,3.5-3.5c0-1.9-1.6-3.5-3.5-3.5
	c-1.9,0-3.5,1.6-3.5,3.5C35,85.6,36.6,87.2,38.5,87.2z M42.3,28c0.6,0.3,1.3,0.5,1.9,0.5c1.2,0,2.4-0.6,3-1.7c1-1.7,0.4-3.8-1.3-4.8
	c-1.7-1-3.9-0.5-4.9,1.2v0C40,24.9,40.7,27,42.3,28z M38.5,63.3c1.9,0,3.5-1.6,3.5-3.5c0-1.9-1.6-3.5-3.5-3.5
	c-1.9,0-3.5,1.6-3.5,3.5C35,61.7,36.6,63.3,38.5,63.3z M73.2,9.5c0.1,0,0.3,0,0.5,0c1.9-0.2,3.3-2,3-3.9s-2-3.3-3.9-3
	c-1.9,0.2-3.3,2-3,3.9C70,8.2,71.5,9.5,73.2,9.5z M51.9,19.4c0.8,0,1.7-0.3,2.3-0.9c1.4-1.3,1.6-3.5,0.3-5c-1.3-1.4-3.5-1.6-4.9-0.3
	c-1.4,1.3-1.6,3.5-0.3,5C49.9,19,50.9,19.4,51.9,19.4z M84.5,9.7c0.2,0,0.4,0.1,0.6,0.1c1.7,0,3.2-1.2,3.5-2.9c0.3-1.9-1-3.7-2.9-4
	c-1.9-0.3-3.7,1-4,2.9C81.3,7.5,82.6,9.3,84.5,9.7z M61.8,12.8c0.5,0,1-0.1,1.5-0.3c1.8-0.8,2.5-2.9,1.7-4.6
	c-0.8-1.8-2.9-2.5-4.6-1.7C58.6,7,57.8,9,58.6,10.8C59.2,12.1,60.5,12.8,61.8,12.8z M94.8,13.1c0.5,0.3,1,0.4,1.6,0.4
	c1.3,0,2.5-0.7,3.1-1.9c0.9-1.7,0.2-3.8-1.5-4.7c-1.7-0.9-3.8-0.2-4.7,1.5C92.4,10.1,93.1,12.2,94.8,13.1z M38.5,170.7
	c1.9,0,3.5-1.6,3.5-3.5c0-1.9-1.6-3.5-3.5-3.5c-1.9,0-3.5,1.6-3.5,3.5C35,169.1,36.6,170.7,38.5,170.7z M38.5,158.8
	c1.9,0,3.5-1.6,3.5-3.5c0-1.9-1.6-3.5-3.5-3.5c-1.9,0-3.5,1.6-3.5,3.5C35,157.2,36.6,158.8,38.5,158.8z M38.5,99.1
	c1.9,0,3.5-1.6,3.5-3.5c0-1.9-1.6-3.5-3.5-3.5c-1.9,0-3.5,1.6-3.5,3.5C35,97.5,36.6,99.1,38.5,99.1z M38.5,146.8
	c1.9,0,3.5-1.6,3.5-3.5s-1.6-3.5-3.5-3.5c-1.9,0-3.5,1.6-3.5,3.5S36.6,146.8,38.5,146.8z M38.5,182.6c1.9,0,3.5-1.6,3.5-3.5
	c0-1.9-1.6-3.5-3.5-3.5c-1.9,0-3.5,1.6-3.5,3.5C35,181.1,36.6,182.6,38.5,182.6z M38.5,111c1.9,0,3.5-1.6,3.5-3.5s-1.6-3.5-3.5-3.5
	c-1.9,0-3.5,1.6-3.5,3.5S36.6,111,38.5,111z M38.5,123c1.9,0,3.5-1.6,3.5-3.5c0-1.9-1.6-3.5-3.5-3.5c-1.9,0-3.5,1.6-3.5,3.5
	C35,121.4,36.6,123,38.5,123z M38.5,134.9c1.9,0,3.5-1.6,3.5-3.5c0-1.9-1.6-3.5-3.5-3.5c-1.9,0-3.5,1.6-3.5,3.5
	C35,133.3,36.6,134.9,38.5,134.9z M38.5,75.2c1.9,0,3.5-1.6,3.5-3.5c0-1.9-1.6-3.5-3.5-3.5c-1.9,0-3.5,1.6-3.5,3.5
	C35,73.6,36.6,75.2,38.5,75.2z M118.3,45.8c-1.9,0-3.5,1.6-3.5,3.5c0,1.9,1.6,3.5,3.5,3.5c1.9,0,3.5-1.6,3.5-3.5
	C121.8,47.4,120.2,45.8,118.3,45.8z M114,38.1c0.3,1.7,1.8,2.8,3.4,2.8c0.2,0,0.5,0,0.7-0.1c1.9-0.4,3.1-2.2,2.7-4.1
	c-0.4-1.9-2.3-3.1-4.1-2.7C114.9,34.4,113.6,36.2,114,38.1z M118.3,57.7c-1.9,0-3.5,1.6-3.5,3.5c0,1.9,1.6,3.5,3.5,3.5
	c1.9,0,3.5-1.6,3.5-3.5C121.8,59.3,120.2,57.7,118.3,57.7z M118.3,69.7c-1.9,0-3.5,1.6-3.5,3.5c0,1.9,1.6,3.5,3.5,3.5
	c1.9,0,3.5-1.6,3.5-3.5C121.8,71.2,120.2,69.7,118.3,69.7z M106.1,20.4c0.9,0,1.8-0.4,2.5-1.1c1.3-1.4,1.3-3.6-0.1-5
	c-1.4-1.3-3.6-1.3-4.9,0.1c-1.3,1.4-1.3,3.6,0.1,5C104.3,20,105.2,20.4,106.1,20.4z M113.3,29.8c0.6,0,1.2-0.1,1.7-0.4
	c1.7-0.9,2.3-3.1,1.4-4.8c-0.9-1.7-3.1-2.3-4.8-1.4s-2.3,3.1-1.4,4.8C110.9,29.1,112.1,29.8,113.3,29.8z M62.9,140.3
	c-1.9,0-3.5,1.5-3.5,3.4c0,1.9,1.6,3.3,3.5,3.3c0,0,0,0,0,0c1.9,0,3.5-1.4,3.5-3.4C66.4,141.7,64.8,140.3,62.9,140.3z M63,104.3
	c-1.9,0-3.5,1.5-3.5,3.4c0,1.9,1.6,3.3,3.5,3.3h0c1.9,0,3.5-1.4,3.5-3.4C66.5,105.7,64.9,104.3,63,104.3z M96.7,28.9
	c-1.3,1.4-1.1,3.7,0.3,4.9c0.7,0.6,1.5,0.9,2.3,0.9c1,0,1.9-0.4,2.6-1.2c1.3-1.4,1.1-3.7-0.3-4.9C100.2,27.3,98,27.4,96.7,28.9z
	 M63,80.3c-1.9,0-3.5,1.5-3.5,3.4c0,1.9,1.6,3.3,3.5,3.3c0,0,0,0,0,0c1.9,0,3.5-1.4,3.5-3.4C66.5,81.7,65,80.3,63,80.3z M62.9,128.3
	c-1.9,0-3.5,1.5-3.5,3.4c0,1.9,1.6,3.3,3.5,3.3c0,0,0,0,0,0c1.9,0,3.5-1.4,3.5-3.4C66.4,129.7,64.8,128.3,62.9,128.3z M63.1,68.3
	c-1.9,0-3.5,1.5-3.5,3.4c0,1.9,1.6,3.3,3.5,3.3h0c1.9,0,3.5-1.4,3.5-3.4C66.6,69.7,65,68.3,63.1,68.3z M63,92.3
	c-1.9,0-3.5,1.5-3.5,3.4c0,1.9,1.6,3.3,3.5,3.3c0,0,0,0,0,0c1.9,0,3.5-1.4,3.5-3.4C66.5,93.7,64.9,92.3,63,92.3z M62.9,116.3
	c-1.9,0-3.5,1.5-3.5,3.4c0,1.9,1.5,3.3,3.5,3.3c0,0,0,0,0,0c1.9,0,3.5-1.4,3.5-3.4C66.4,117.7,64.9,116.3,62.9,116.3z M104.7,37.8
	c-1.8,0.7-2.7,2.8-2,4.5c0.5,1.4,1.9,2.2,3.2,2.2c0.4,0,0.9-0.1,1.3-0.2c1.8-0.7,2.7-2.8,2-4.6C108.6,37.9,106.5,37.1,104.7,37.8z
	 M108.7,61.2c-1.9,0-3.5,1.5-3.5,3.5c0,1.9,1.5,3.5,3.5,3.5c0,0,0,0,0,0c1.9,0,3.5-1.6,3.5-3.5C112.1,62.8,110.6,61.2,108.7,61.2z
	 M62.8,164.3c-1.9,0-3.5,1.5-3.5,3.4c0,1.9,1.6,3.3,3.5,3.3c0,0,0,0,0,0c1.9,0,3.5-1.4,3.5-3.4C66.3,165.7,64.8,164.3,62.8,164.3z
	 M73.9,30.3c0.6,1.2,1.8,1.8,3.1,1.8c0.6,0,1.1-0.1,1.7-0.4c1.7-0.9,2.3-3.1,1.4-4.8c-0.9-1.7-3-2.3-4.8-1.4
	C73.6,26.5,73,28.6,73.9,30.3z M85.1,25.9c-0.2,1.9,1.2,3.7,3.1,3.9c0.1,0,0.3,0,0.4,0c1.8,0,3.3-1.3,3.5-3.1
	c0.2-1.9-1.1-3.6-3.1-3.9C87.1,22.6,85.3,24,85.1,25.9z M66.6,39.8c0.6,0.4,1.2,0.5,1.9,0.5c1.1,0,2.3-0.6,2.9-1.6
	c1-1.6,0.6-3.8-1.1-4.8c-1.6-1-3.8-0.6-4.8,1.1C64.5,36.6,64.9,38.8,66.6,39.8z M105.1,53c0.1,1.9,1.7,3.2,3.5,3.2
	c0.1,0,0.2,0,0.3,0c1.9-0.1,3.4-1.8,3.2-3.7c-0.1-1.9-1.8-3.4-3.7-3.2S104.9,51,105.1,53z M63.1,56.3c-1.9,0-3.5,1.5-3.5,3.4
	c0,1.9,1.6,3.3,3.5,3.3c0,0,0,0,0,0c1.9,0,3.5-1.4,3.5-3.4C66.6,57.7,65,56.3,63.1,56.3z M108.5,80C108.5,80,108.5,80,108.5,80
	c1.9,0,3.5-1.5,3.5-3.4c0-1.9-1.5-3.4-3.5-3.5c-1.9,0-3.5,1.5-3.5,3.4C105,78.5,106.6,80,108.5,80z M67.5,48.7
	c0.4-1.9-0.8-3.8-2.7-4.1c-1.9-0.4-3.8,0.8-4.2,2.7c-0.4,1.9,0.8,3.8,2.7,4.1c0.2,0,0.5,0.1,0.7,0.1C65.7,51.4,67.2,50.3,67.5,48.7z
	 M62.8,152.3c-1.9,0-3.5,1.5-3.5,3.4c0,1.9,1.6,3.3,3.5,3.3c0,0,0,0,0,0c1.9,0,3.5-1.4,3.5-3.4C66.3,153.7,64.8,152.3,62.8,152.3z"
	/>
</svg>