<?xml version="1.0" encoding="iso-8859-1"?>
<!-- Uploaded to: SVG Repo, www.svgrepo.com, Generator: SVG Repo Mixer Tools -->
<svg fill="#000000" height="800px" width="800px" version="1.1" id="Layer_1" xmlns="http://www.w3.org/2000/svg" xmlns:xlink="http://www.w3.org/1999/xlink" 
	 viewBox="0 0 511.989 511.989" xml:space="preserve">
<g>
	<g>
		<circle cx="300.59" cy="43.784" r="43.784"/>
	</g>
</g>
<g>
	<g>
		<path d="M305.094,224.6l79.247-1.443c10.958-0.196,19.673-9.246,19.474-20.196c-0.185-10.256-8.389-19.473-20.196-19.473
			c-7.269,0.133-61.339,1.117-68.612,1.249l-42.896-62.07l38.697,33.321l4.242-11.788c5.662-15.324-2.171-32.336-17.494-37.999
			l-49.48-18.283c-6.839-2.527-14.012-2.359-20.365-0.043c-4.884,1.01,0.812-2.004-88.353,53.987
			c-5.612,3.525-9.11,9.629-9.282,16.289l-2.045,79.233c-0.284,10.93,8.347,20.06,19.32,20.343c2.942,0.076,5.992-0.556,8.73-1.789
			l17.698,110.824L135.84,467.351c-3.436,9.109-0.91,18.994,5.62,25.4h-23.671c-5.312,0-9.618,4.307-9.618,9.618
			c0,5.312,4.307,9.619,9.618,9.619h96.407c14.543,0,26.374-11.831,26.374-26.374s-11.831-26.374-26.374-26.374h-6.733
			c-5.312,0-9.618,4.307-9.618,9.618s4.307,9.618,9.618,9.618h6.733c3.935,0,7.137,3.202,7.137,7.137
			c0,3.935-3.202,7.137-7.137,7.137h-39.43c2.405-2.352,4.357-5.242,5.623-8.598l40.157-106.471
			c1.454-3.855,1.882-8.023,1.244-12.093c-1.239-7.892-12.196-77.685-13.419-85.476l14.702,5.433l35.744,79.093l26.462,116.391
			c1.053,4.634,3.404,8.63,6.567,11.721h-22.418c-5.254,0-9.618,4.27-9.618,9.618c0,5.312,4.307,9.619,9.618,9.619
			c11.518,0,85.093,0,96.407,0c14.543,0,26.374-11.831,26.374-26.374s-11.831-26.374-26.374-26.374h-6.733
			c-5.355,0-9.618,4.372-9.618,9.618c0,5.301,4.335,9.618,9.618,9.618h6.733c3.935,0,7.137,3.202,7.137,7.137
			c0,3.935-3.202,7.137-7.137,7.137c-8.634,0-14.233,0-17.745,0c-3.947,0-5.256,0-5.242,0c-3.509,0-9.101,0-17.724,0
			c5.707-5.594,8.483-13.912,6.582-22.277L304.71,351.741c-0.353-1.556-0.863-3.072-1.521-4.526l-34.068-75.385
			c4.682-13.008,8.358-23.226,12.808-35.591c-4.407-3.193-9.311-8.309-11.244-13.234l-29.64-75.502l47.368,68.542
			C292.23,221.566,298.572,224.719,305.094,224.6z M168.117,222.022l1.348-52.214l22.533-14.149L168.117,222.022z"/>
	</g>
</g>
</svg>