<?xml version="1.0" ?>
<!-- Uploaded to: SVG Repo, www.svgrepo.com, Generator: SVG Repo Mixer Tools -->
<svg width="800px" height="800px" viewBox="0 0 64 64" xmlns="http://www.w3.org/2000/svg">
<g id="a"/>
<g id="b"/>
<g id="c"/>
<g id="d"/>
<g id="e"/>
<g id="f"/>
<g id="g"/>
<g id="h"/>
<g id="i"/>
<g id="j"/>
<g id="k"/>
<g id="l"/>
<g id="m"/>
<g id="n"/>
<g id="o"/>
<g id="p"/>
<g id="q"/>
<g id="r"/>
<g id="s"/>
<g id="t"/>
<g id="u"/>
<g id="v"/>
<g id="w"/>
<g id="x"/>
<g id="y"/>
<g id="a`"/>
<g id="aa"/>
<g id="ab"/>
<g id="ac"/>
<g id="ad"/>
<g id="ae"/>
<g id="af"/>
<g id="ag"/>
<g id="ah"/>
<g id="ai"/>
<g id="aj"/>
<g id="ak"/>
<g id="al">
<path d="M41.48,8.23c-.32,0-.64,.05-.91,.19-.82,.42-1.92,1.04-2.94,1.8l6.07,5.37c1.29-3.12,.13-5.47-.84-6.73-.3-.39-.84-.61-1.38-.62Z" fill="#d7e5eb" fill-rule="evenodd"/>
<path d="M31.62,8.73c-3.28,0-6.56,1.25-9.06,3.76-2.56,2.56-3.83,5.97-3.74,9.38-.14-.04-.28-.08-.42-.11-2.31-.62-4.67,.74-5.28,3.05l-.16,.6c-.28,1.06,.34,2.13,1.4,2.42l2.54,.68c.83,.22,1.67,.19,2.43-.05,.54,.59,1.25,1.04,2.08,1.26l2.54,.68c1.06,.28,2.13-.34,2.42-1.39l.16-.6c.62-2.31-.74-4.66-3.05-5.28-.14-.04-.28-.08-.42-.11,.23-.35,.46-.65,.7-.89,2.01-2.01,4.98-2.48,7.43-1.4l4.58,3.94,5.49,5.49c.94,.94,2.45,.94,3.39,0,.94-.94,.94-2.45,0-3.38-.7-.7-.69-1.91,.22-2.82,1.35-1.35,2.22-5.08-2.14-9.43l-2.02-2.02c-2.5-2.5-5.79-3.76-9.07-3.76Z" fill="#f0f4f6" fill-rule="evenodd"/>
<path d="M37.98,22.94c-.69,.78-1.45,1.33-2.23,1.71l2.92,2.92h.15c1.06-1,1.09-2.69,.05-3.73l-.9-.9Zm-8.41-5.83c-2.33-.03-5.03,1.14-6.52,5.89h0c.23-.35,.46-.65,.7-.89,2.01-2.01,4.97-2.47,7.42-1.4,.73-1,1.64-1.93,2.69-2.36,0,0-1.96-1.21-4.28-1.24Z" fill="#d7e5eb" fill-rule="evenodd"/>
<path d="M53.77,33.44c-.7,1.21-2.99,2.91-4.2,2.21s-.88-3.54-.18-4.75c.7-1.21,2.25-1.63,3.46-.93,1.21,.7,1.63,2.25,.93,3.46Z" fill="#62d9fa" fill-rule="evenodd"/>
<path d="M10.23,35.29c.7,1.21,2.99,2.91,4.2,2.21,1.21-.7,.88-3.54,.18-4.75-.7-1.21-2.25-1.63-3.46-.93-1.21,.7-1.63,2.25-.93,3.46Z" fill="#62d9fa" fill-rule="evenodd"/>
<path d="M29.29,30.83c0,1.4,1.13,4.02,2.53,4.02s2.53-2.62,2.53-4.02-1.13-2.53-2.53-2.53-2.53,1.14-2.53,2.53Z" fill="#62d9fa" fill-rule="evenodd"/>
<path d="M14.99,16.8c0,1.14-.93,2.07-2.07,2.07s-2.07-.93-2.07-2.07,.93-2.07,2.07-2.07,2.07,.93,2.07,2.07Z" fill="#d1f1f4" fill-rule="evenodd"/>
<path d="M53.01,23.22c0,1.16-.94,2.09-2.1,2.09s-2.09-.94-2.09-2.09,.94-2.09,2.09-2.09,2.1,.94,2.1,2.09Z" fill="#d1f1f4" fill-rule="evenodd"/>
<path d="M59,46.64v-4.46c0-1.73-1.94-2.75-3.68-1.55s-4.42,1.2-6.45-.21-4.72-1.41-6.75,0-4.72,1.41-6.75,0c-1.02-.7-2.2-1.06-3.38-1.06s-2.36,.35-3.38,1.06c-2.03,1.41-4.72,1.41-6.75,0-1.02-.7-2.2-1.05-3.38-1.05s-2.36,.35-3.38,1.05c-2.03,1.41-4.72,1.41-6.45,.21s-3.68-.18-3.68,1.55v4.46H59Z" fill="#62d9fa" fill-rule="evenodd"/>
<path d="M32,43.83c-1.18,0-2.36,.35-3.38,1.06-2.03,1.41-4.72,1.41-6.75,0-1.02-.7-2.2-1.05-3.38-1.05s-2.36,.35-3.38,1.05c-2.03,1.41-4.72,1.41-6.45,.21-1.73-1.2-3.68-.18-3.68,1.55v4.46l28.1,1.42,25.9-1.42v-4.46c0-1.73-1.94-2.75-3.68-1.55-1.73,1.2-4.42,1.2-6.45-.21s-4.72-1.41-6.75,0-4.72,1.41-6.75,0c-1.02-.7-2.2-1.06-3.38-1.06Z" fill="#0acffb" fill-rule="evenodd"/>
<path d="M32,48.29c-1.18,0-2.36,.35-3.38,1.06-2.03,1.41-4.72,1.41-6.75,0-1.02-.7-2.2-1.05-3.38-1.05s-2.36,.35-3.38,1.05c-2.03,1.41-4.72,1.41-6.45,.21s-3.68-.18-3.68,1.55v1.47c0,1.77,1.43,3.2,3.2,3.2H55.8c1.77,0,3.2-1.43,3.2-3.2v-1.47c0-1.73-1.94-2.75-3.68-1.55s-4.42,1.2-6.45-.21c-2.03-1.41-4.72-1.41-6.75,0-2.03,1.41-4.72,1.41-6.75,0-1.02-.7-2.2-1.06-3.38-1.06Z" fill="#62d9fa" fill-rule="evenodd"/>
<path d="M33.85,18.34c-1.8,.73-3.2,2.95-3.98,4.49-.43,.84-.04,1.96,.85,2.25,1.7,.56,4.88,.53,7.27-2.14l-4.13-4.59Z" fill="#f0f4f6" fill-rule="evenodd"/>
</g>
<g id="am"/>
<g id="an"/>
<g id="ao"/>
<g id="ap"/>
<g id="aq"/>
<g id="ar"/>
<g id="as"/>
<g id="at"/>
<g id="au"/>
<g id="av"/>
<g id="aw"/>
<g id="ax"/>
</svg>