<?xml version="1.0" encoding="iso-8859-1"?>
<!-- Uploaded to: SVG Repo, www.svgrepo.com, Generator: SVG Repo Mixer Tools -->
<svg height="800px" width="800px" version="1.1" id="Layer_1" xmlns="http://www.w3.org/2000/svg" xmlns:xlink="http://www.w3.org/1999/xlink" 
	 viewBox="0 0 512.032 512.032" xml:space="preserve">
<path style="fill:#FF5400;" d="M388,40.032h4.8l-12.8,12.8l-12.8-12.8l12.8-12.8v4.8C380,36.832,384,40.032,388,40.032z"/>
<path style="fill:#FF9900;" d="M396,396.832v99.2h-56v-40v-8h-16v8v40H180v-48h-16v48h-56v-99.2c39.2-28.8,88-44.8,136-44.8h16
	C308,352.032,356.8,368.032,396,396.832z"/>
<path style="fill:#FF6600;" d="M252,48.032c30.4,0,57.6,11.2,79.2,29.6l-23.2,23.2c-15.2-12.8-34.4-20.8-56-20.8
	c-48.8,0-88,39.2-88,88s39.2,88,88,88s88-39.2,88-88c0-21.6-8-40.8-20-56l22.4-22.4c18.4,20.8,29.6,48.8,29.6,79.2
	c0,66.4-53.6,120-120,120s-120-53.6-120-120S185.6,48.032,252,48.032z"/>
<g>
	<path style="fill:#FFF8EF;" d="M308,123.232c9.6,12,16,28,16,44.8c0,40-32,72-72,72s-72-32-72-72s32-72,72-72
		c16.8,0,32.8,5.6,44.8,16l-23.2,23.2c-5.6-4.8-13.6-7.2-21.6-7.2c-22.4,0-40,17.6-40,40s17.6,40,40,40s40-17.6,40-40
		c0-8-2.4-16-6.4-22.4L308,123.232z"/>
	<polygon style="fill:#FFF8EF;" points="276,304.032 276,336.032 260,336.032 244,336.032 228,336.032 228,304.032 	"/>
</g>
<path style="fill:#FF6600;" d="M273.6,157.632c1.6,3.2,2.4,6.4,2.4,10.4c0,12.8-10.4,24-24,24c-12.8,0-24-11.2-24-24s11.2-24,24-24
	c4,0,7.2,0.8,10.4,2.4l-16,16l11.2,11.2L273.6,157.632z"/>
<path style="fill:#42210B;" d="M380,52.832l12.8-12.8H388c-4,0-8-3.2-8-8v-4.8l-12.8,12.8L380,52.832z M276,168.032
	c0-4-0.8-7.2-2.4-10.4l-16,16l-11.2-11.2l16-16c-3.2-1.6-6.4-2.4-10.4-2.4c-12.8,0-24,11.2-24,24s11.2,24,24,24
	C265.6,192.032,276,180.832,276,168.032z M276,336.032v-32h-48v32h16h16H276z M396,396.832c-39.2-28.8-88-44.8-136-44.8h-16
	c-48.8,0-96.8,16-136,44.8v99.2h56v-48h16v48h144v-40v-8h16v8v40h56V396.832z M340,168.032c0,48.8-39.2,88-88,88s-88-39.2-88-88
	s39.2-88,88-88c21.6,0,40.8,8,56,20.8l22.4-22.4c-20.8-19.2-48-30.4-78.4-30.4c-66.4,0-120,53.6-120,120s53.6,120,120,120
	s120-53.6,120-120c0-30.4-11.2-57.6-29.6-79.2l-22.4,23.2C332,127.232,340,146.432,340,168.032z M252,32.032
	c34.4,0,66.4,12.8,90.4,34.4l14.4-14.4l-6.4-6.4c-3.2-3.2-3.2-8,0-11.2l32-32c2.4-2.4,5.6-3.2,8.8-1.6c3.2,0.8,4.8,4,4.8,7.2v16h16
	c3.2,0,6.4,1.6,7.2,4.8c1.6,3.2,0.8,6.4-1.6,8.8l-32,32c-1.6,1.6-3.2,2.4-5.6,2.4s-4-0.8-5.6-2.4l-6.4-6.4l-14.4,14.4
	c21.6,24,34.4,55.2,34.4,90.4c0,60.8-40.8,112.8-96,130.4v40c42.4,5.6,83.2,22.4,116.8,48c1.6,1.6,3.2,4,3.2,6.4v111.2c0,4-4,8-8,8
	h-64h-16H180h-16h-64c-4.8,0-8-4-8-8v-111.2c0-2.4,0.8-4.8,3.2-6.4c33.6-25.6,74.4-42.4,116.8-48v-40c-55.2-16.8-96-68.8-96-130.4
	C116,92.832,176.8,32.032,252,32.032z M324,168.032c0-16.8-5.6-32.8-16-44.8l-23.2,23.2c4.8,5.6,7.2,13.6,7.2,21.6
	c0,22.4-17.6,40-40,40s-40-17.6-40-40s17.6-40,40-40c8,0,16,2.4,22.4,6.4l23.2-23.2c-12-9.6-28-16-44.8-16c-40,0-72,32-72,72
	s32,72,72,72S324,208.032,324,168.032z"/>
<path style="fill:#FF5400;" d="M331.2,100.832l-11.2,11.2c12.8,15.2,20,35.2,20,56c0,48.8-39.2,88-88,88s-88-39.2-88-88
	s39.2-88,88-88c21.6,0,40.8,8,56,20l11.2-11.2c-17.6-15.2-41.6-24.8-67.2-24.8c-57.6,0-104,46.4-104,104s46.4,104,104,104
	s104-46.4,104-104C356,142.432,346.4,118.432,331.2,100.832z"/>
<path style="fill:#D9CDC1;" d="M292,168.032c0,22.4-17.6,40-40,40s-40-17.6-40-40s17.6-40,40-40c8,0,16,2.4,22.4,6.4l5.6-5.6
	c-8-5.6-17.6-8.8-28-8.8c-26.4,0-48,21.6-48,48s21.6,48,48,48s48-21.6,48-48c0-10.4-3.2-20-8.8-28l-5.6,5.6
	C289.6,152.032,292,160.032,292,168.032z"/>
<path style="fill:#FF7D00;" d="M260,352.032h-16c-48.8,0-96.8,16-136,44.8v99.2l7.2-86.4c0.8-6.4,4-11.2,9.6-14.4
	c30.4-16.8,136.8-67.2,255.2,0c5.6,3.2,8.8,8.8,8.8,14.4l7.2,86.4v-99.2C356.8,368.032,308,352.032,260,352.032z"/>
<path style="fill:#D9CDC1;" d="M228,304.032l28.8,5.6c6.4,1.6,12,6.4,14.4,12.8l4.8,13.6v-32H228z"/>
</svg>