<?xml version="1.0" encoding="utf-8"?>
<!-- Uploaded to: SVG Repo, www.svgrepo.com, Generator: SVG Repo Mixer Tools -->
<svg fill="#000000" version="1.1" id="Layer_1" xmlns="http://www.w3.org/2000/svg" xmlns:xlink="http://www.w3.org/1999/xlink" 
	 width="800px" height="800px" viewBox="0 0 256 253" enable-background="new 0 0 256 253" xml:space="preserve">
<path d="M155.789,113.116c-2.444,0-4.435,1.991-4.435,4.435v13.94c0,2.444,1.991,4.435,4.435,4.435c2.444,0,4.435-1.991,4.435-4.435
	v-13.94C160.224,115.107,158.233,113.116,155.789,113.116 M179.052,125.969v23.444v68.702H76.948v-68.793v-23.353h13.849v5.612
	c0,5.159,4.164,9.414,9.414,9.414c5.159,0,9.413-4.255,9.413-9.414v-5.612h36.75v5.612c0,5.159,4.254,9.414,9.414,9.414
	c5.159,0,9.414-4.254,9.414-9.414v-5.612H179.052z M173.53,149.413H82.47v63h70.784l20.276-20.004L173.53,149.413L173.53,149.413z
	 M100.211,113.116c-2.444,0-4.435,1.991-4.435,4.435v13.94c0,2.444,1.991,4.435,4.435,4.435c2.444,0,4.435-1.991,4.435-4.435v-13.94
	C104.647,115.107,102.655,113.116,100.211,113.116 M155.789,113.116c-2.444,0-4.435,1.991-4.435,4.435v13.94
	c0,2.444,1.991,4.435,4.435,4.435c2.444,0,4.435-1.991,4.435-4.435v-13.94C160.224,115.107,158.233,113.116,155.789,113.116
	 M122.958,203.735l-21.803-21.803l8.701-8.701l13.115,13.115l24.443-24.373l8.689,8.713L122.958,203.735z M2,69
	c0,13.678,9.625,25.302,22,29.576V233H2v18h252v-18h-22V98.554c12.89-3.945,21.699-15.396,22-29.554v-8H2V69z M65.29,68.346
	c0,6.477,6.755,31.47,31.727,31.47c21.689,0,31.202-19.615,31.202-31.47c0,11.052,7.41,31.447,31.464,31.447
	c21.733,0,31.363-20.999,31.363-31.447c0,14.425,9.726,26.416,22.954,30.154V233H42V98.594C55.402,94.966,65.29,82.895,65.29,68.346
	z M254,54H2l32-32V2h189v20h-0.168L254,54z"/>
</svg>