<?xml version="1.0" encoding="iso-8859-1"?>
<!-- Uploaded to: SVG Repo, www.svgrepo.com, Generator: SVG Repo Mixer Tools -->
<svg height="800px" width="800px" version="1.1" id="Layer_1" xmlns="http://www.w3.org/2000/svg" xmlns:xlink="http://www.w3.org/1999/xlink" 
	 viewBox="0 0 512 512" xml:space="preserve">
<g transform="translate(1 1)">
	<path style="fill:#FFE100;" d="M401.814,46.407L401.814,46.407L401.814,46.407c12.326,0.948-1.896,9.481-4.741,37.926
		L378.11,311.889c0,93.867,1.896,91.97-28.444,132.741v37.926c0,14.222-18.963,26.548-28.444,28.444
		c14.222-1.896,56.889-13.274,56.889-28.444V444.63c30.341-40.77,28.444-38.874,28.444-132.741l28.444-227.556
		C437.844,53.993,419.829,46.407,401.814,46.407"/>
	<path style="fill:#FFA800;" d="M373.37,36.926L373.37,36.926h-0.948c13.274,0.948,8.533,9.481,5.689,37.926l-28.444,227.556
		c0,93.867,1.896,91.97-28.444,132.741v37.926c0,14.222,13.274,26.548,2.844,28.444c14.222-1.896,24.652-13.274,25.6-28.444v-37.926
		c30.341-40.77,28.444-38.874,28.444-132.741l28.444-227.556C409.399,44.511,391.384,36.926,373.37,36.926"/>
	<path style="fill:#FFE100;" d="M368.629,36.926L368.629,36.926c-18.015,0-30.341,45.511-28.444,37.926l-29.393,104.296h-1.896
		c-3.793-15.17-17.067-28.444-32.237-28.444c-16.118,0-24.652,18.015-27.496,34.133c-7.585-16.119-19.911-34.133-36.978-34.133
		c-15.17,0-27.496,13.274-31.289,28.444h-0.948L165.725,55.889c-0.948-7.585-2.844-15.17-5.689-21.807
		c-5.689-15.17-14.222-25.6-28.444-25.6l0,0c-18.963,0-12.326,20.859-10.43,38.874l18.963,245.57
		c-25.6,10.43-28.444,20.859-28.444,66.37l0,0c0,44.563,37.926,75.852,37.926,75.852v37.926c0,16.119,12.326,28.444,28.444,28.444
		h143.17c16.119,0,0-12.326,0-28.444v-37.926c30.341-40.77,28.444-38.874,28.444-132.741L378.11,74.852
		C380.955,44.511,386.644,36.926,368.629,36.926"/>
	<path style="fill:#FFFFFF;" d="M149.607,473.074v-37.926c0,0-37.926-31.289-37.926-75.852l0,0c0-45.511,2.844-55.941,28.444-66.37
		l-18.963-245.57c-0.948-17.067-7.585-36.978,8.533-38.874c-0.948,0-1.896,0-1.896,0l0,0c-18.963,0-35.081,20.859-34.133,38.874
		l18.963,245.57c-25.6,10.43-28.444,20.859-28.444,66.37l0,0c0,44.563,37.926,75.852,37.926,75.852v37.926
		c0,16.119,12.326,28.444,28.444,28.444h27.496C161.933,501.519,149.607,489.193,149.607,473.074"/>
	<path d="M278.555,340.333c-24.652,0-43.615-24.652-43.615-47.407V188.63l0,0c0-22.756,17.067-47.407,41.719-47.407
		s43.615,24.652,43.615,47.407l0,0v104.296C321.221,315.681,303.207,340.333,278.555,340.333z M254.851,188.63v104.296
		c0,13.274,11.378,28.444,24.652,28.444c13.274,0,22.756-15.17,22.756-28.444V188.63c0-13.274-11.378-28.444-24.652-28.444
		C264.333,160.185,254.851,175.356,254.851,188.63z"/>
	<path d="M150.555,349.815c-2.844,0-5.689-0.948-7.585-3.793c-3.793-3.793-2.844-10.43,0.948-13.274
		c41.719-35.081,55.941-54.044,60.681-64.474c4.741-10.43-0.948-29.393-11.378-35.081c-9.481-5.689-18.015,3.793-23.704,12.326
		c-8.533,12.326-23.704,35.081-52.148,54.044c-4.741,2.844-10.43,1.896-13.274-2.844c-2.844-4.741-1.896-10.43,2.844-13.274
		c25.6-18.015,39.822-38.874,47.407-49.304c20.859-31.289,42.667-21.807,49.304-18.015c18.963,11.378,28.444,39.822,18.963,59.733
		c-7.585,17.067-30.341,40.77-65.422,71.111C155.296,348.867,152.451,349.815,150.555,349.815z"/>
	<path d="M321.221,511H150.555c-20.859,0-37.926-17.067-37.926-37.926v-34.133c-10.43-9.481-37.926-39.822-37.926-79.644
		c0-5.689,3.793-9.481,9.481-9.481s9.481,3.793,9.481,9.481c0,39.822,34.133,68.267,35.081,68.267
		c1.896,1.896,2.844,4.741,2.844,7.585v37.926c0,10.43,8.533,18.963,18.963,18.963h170.667c10.43,0,18.963-8.533,18.963-18.963
		v-37.926c0-1.896,0.948-3.793,1.896-5.689c26.548-36.03,26.548-36.03,26.548-108.089v-18.963v-0.948l10.43-85.333
		c0.948-4.741,5.689-8.533,10.43-8.533c4.741,0.948,8.533,5.689,8.533,10.43l-10.43,85.333v18.015c0,73.956,0,78.696-28.444,117.57
		v34.133C359.147,493.933,342.081,511,321.221,511z"/>
	<path d="M84.184,368.778c-5.689,0-9.481-3.793-9.481-9.481c0-41.719,2.844-59.733,27.496-72.059L84.184,48.304
		c-0.948-12.326,3.793-25.6,13.274-35.081C105.992,3.741,116.421-1,126.851-1c25.6,0,34.133,23.704,36.978,31.289
		c2.844,6.637,4.741,15.17,5.689,24.652L183.74,152.6c7.585-7.585,17.067-11.378,26.548-11.378c14.222,0,25.6,8.533,34.133,18.963
		c7.585-10.43,18.963-18.963,33.185-18.963c12.326,0,22.756,6.637,30.341,15.17l22.756-84.385
		c10.43-36.978,29.393-44.563,42.667-44.563c14.222,0,25.6,3.793,33.185,12.326c7.585,8.533,10.43,20.859,9.481,36.03l-9.481,73.956
		c-0.948,4.741-5.689,8.533-10.43,8.533c-4.741-0.948-8.533-5.689-8.533-10.43l9.481-73.956c0.948-9.481-0.948-17.067-4.741-20.859
		c-3.793-3.793-9.481-5.689-18.963-5.689c-13.274,0-21.807,19.911-24.652,31.289l-28.444,104.296
		c-0.948,3.793-4.741,6.637-9.481,6.637h-1.896c-4.741,0-7.585-2.844-9.482-6.637c-2.844-10.43-12.326-21.807-23.704-21.807
		c-10.43,0-18.963,11.378-21.807,21.807c-0.948,3.793-4.741,7.585-9.481,7.585h-2.844c-4.741,0-7.585-2.844-9.481-6.637
		c-2.844-10.43-12.326-21.807-23.704-21.807c-10.43,0-18.963,11.378-21.807,21.807c-0.948,3.793-4.741,7.585-9.481,7.585h1.896
		c-4.741,0-8.533-3.793-9.481-8.533L151.503,59.681c-0.948-10.43-2.844-17.067-4.741-22.756
		c-6.637-17.067-13.274-18.963-19.911-18.963c-4.741,0-10.43,2.844-15.17,7.585c-5.689,6.637-9.481,14.222-8.533,21.807
		l18.963,244.622c0,3.793-1.896,7.585-5.689,9.481c-19.911,8.533-22.756,13.274-22.756,57.837
		C93.666,364.985,88.925,368.778,84.184,368.778z"/>
	<path d="M401.814,184.837c0-5.689-3.793-9.481-9.481-9.481s-9.481,3.793-9.481,9.481c0,5.689,3.793,9.481,9.481,9.481
		S401.814,190.526,401.814,184.837"/>
	<path d="M212.184,340.333c-14.222,0-28.444-9.481-36.978-24.652c-1.896-3.793-1.896-8.533,1.896-11.378
		c14.222-14.222,23.704-27.496,28.444-36.03c3.793-8.533,0.948-23.704-7.585-32.237c-6.637-6.637-13.274-3.793-15.17-2.844
		c-2.844,1.896-6.637,0.948-9.481,0c-2.844-1.896-4.741-4.741-4.741-8.533v-36.03c0-22.756,17.067-47.407,41.719-47.407
		s43.615,24.652,43.615,47.407v104.296C254.851,315.681,236.836,340.333,212.184,340.333z M196.066,312.837
		c4.741,5.689,10.43,8.533,16.119,8.533c13.274,0,22.756-15.17,22.756-28.444V188.63c0-13.274-11.378-28.444-24.652-28.444
		c-12.326,0-22.756,15.17-22.756,28.444v24.652c8.533,0,16.119,2.844,22.756,9.481c14.222,14.222,18.963,36.978,11.378,54.044
		C217.873,286.289,209.34,298.615,196.066,312.837z"/>
</g>
</svg>