<?xml version="1.0" encoding="iso-8859-1"?>
<!-- Uploaded to: SVG Repo, www.svgrepo.com, Generator: SVG Repo Mixer Tools -->
<!DOCTYPE svg PUBLIC "-//W3C//DTD SVG 1.1//EN" "http://www.w3.org/Graphics/SVG/1.1/DTD/svg11.dtd">
<svg fill="#000000" height="800px" width="800px" version="1.1" id="Capa_1" xmlns="http://www.w3.org/2000/svg" xmlns:xlink="http://www.w3.org/1999/xlink" 
	 viewBox="0 0 395 395" xml:space="preserve">
<g>
	<path d="M313.002,0H82C36.785,0,0,36.784,0,81.998v230.993C0,358.211,36.785,395,82,395h231.002
		C358.216,395,395,358.211,395,312.991V81.998C395,36.784,358.216,0,313.002,0z M380,312.991C380,349.94,349.944,380,313.002,380H82
		c-36.944,0-67-30.06-67-67.009V81.998C15,45.056,45.056,15,82,15h231.002C349.944,15,380,45.056,380,81.998V312.991z"/>
	<path d="M225.618,129.261c19.44,5.465,39.633-5.852,45.096-25.291c5.469-19.438-5.867-39.631-25.304-45.097
		c-19.435-5.465-39.636,5.864-45.101,25.302C194.845,103.614,206.184,123.796,225.618,129.261z"/>
	<path d="M311.664,187.547c-1.117-7.39-8.018-12.476-15.405-11.357c-10.63,1.607-23.765,3.084-29.674,3.18
		c-1.93-2.044-4.846-5.423-7.317-8.288c-12.121-14.047-28.722-33.284-45.982-40.732c-8.051-3.472-23.17-6.612-61.327,6.172
		c-19.35,6.482-35.628,14.085-36.311,14.405c-6.766,3.173-9.678,11.229-6.507,17.995c3.17,6.768,11.228,9.684,17.995,6.514
		c0.155-0.072,15.739-7.342,33.646-13.323c2.34-0.782,4.542-1.48,6.642-2.116c0,0-14.328,36.848-14.811,38.855l-13.052,49.305
		l-30.899,37.638c-2.129,0.63-3.931,2.404-4.842,4.528l-4.421,10.305c-1.533,3.574,0.12,7.715,3.694,9.249l39.008,16.748
		c0.899,0.387,1.843,0.572,2.775,0.572c0.059,0,0.117-0.001,0.176-0.002c3.819-0.081,6.891-3.203,6.891-7.042
		c0-1.882-0.738-3.592-1.94-4.855l-15.382-18.467l27.73-33.776c1.231-1.5,2.126-3.247,2.623-5.124l5.96-22.515l28.822,16.397
		l-10,45.549c-0.014,0.061-0.019,0.124-0.031,0.186c-2.026,1.348-3.188,3.888-3.193,6.417l-0.027,11.211
		c-0.01,3.89,3.136,7.051,7.025,7.061l42.45,0.107c0.006,0,0.012,0,0.018,0c0.006,0,0.012,0,0.02,0c3.891,0,7.044-3.153,7.044-7.043
		c0-2.872-1.72-5.343-4.186-6.439l-21.514-11.019l10.97-49.962c1.271-5.79-1.374-11.734-6.526-14.666l-12.855-7.313l18.513-49.904
		c4.232,4.563,8.141,9.092,11.313,12.769c8.701,10.083,12.673,14.685,18.181,16.521c1.171,0.391,3.293,1.098,9.243,1.098
		c6.176,0,16.475-0.763,34.11-3.432C307.698,201.834,312.782,194.938,311.664,187.547z"/>
	<path d="M198.857,323.851c-3.339,0-6.04,2.705-6.04,6.041c0,3.335,2.701,6.04,6.04,6.04c3.339,0,6.041-2.705,6.041-6.04
		C204.898,326.556,202.196,323.851,198.857,323.851z"/>
	<circle cx="214.769" cy="329.891" r="6.041"/>
	<circle cx="230.681" cy="329.891" r="6.041"/>
	<path d="M105.168,313.237c-3.06-1.33-6.618,0.072-7.949,3.133c-1.329,3.061,0.074,6.617,3.138,7.947
		c3.059,1.33,6.617-0.072,7.945-3.133C109.632,318.124,108.229,314.565,105.168,313.237z"/>
	<circle cx="117.353" cy="325.117" r="6.04"/>
	<path d="M134.355,325.915c-3.062-1.328-6.62,0.076-7.947,3.135c-1.328,3.059,0.071,6.618,3.133,7.948
		c3.061,1.33,6.618-0.074,7.949-3.135C138.815,330.804,137.415,327.245,134.355,325.915z"/>
</g>
</svg>