<?xml version="1.0" encoding="iso-8859-1"?>
<!-- Uploaded to: SVG Repo, www.svgrepo.com, Generator: SVG Repo Mixer Tools -->
<svg fill="#000000" height="800px" width="800px" version="1.1" id="Layer_1" xmlns="http://www.w3.org/2000/svg" xmlns:xlink="http://www.w3.org/1999/xlink" 
	 viewBox="0 0 511.999 511.999" xml:space="preserve">
<g>
	<g>
		<path d="M255.999,191.454H114.384v-16.34h8.17c4.512,0,8.17-3.657,8.17-8.17c0-4.513-3.658-8.17-8.17-8.17h-16.34
			c-4.512,0-8.17,3.657-8.17,8.17v24.51H49.022v-16.34h8.17c4.512,0,8.17-3.657,8.17-8.17c0-4.513-3.658-8.17-8.17-8.17h-16.34
			c-4.512,0-8.17,3.657-8.17,8.17v24.51H8.172c-4.512,0-8.17,3.657-8.17,8.17s3.658,8.17,8.17,8.17h239.658v78.978
			c0,4.513,3.658,8.17,8.17,8.17s8.17-3.657,8.17-8.17v-87.148C264.17,195.111,260.511,191.454,255.999,191.454z"/>
	</g>
</g>
<g>
	<g>
		<path d="M255.999,32.409c-31.536,0-57.191,25.656-57.191,57.191c0,31.535,25.655,57.191,57.191,57.191S313.19,121.134,313.19,89.6
			C313.19,58.065,287.535,32.409,255.999,32.409z M255.999,130.451c-22.526,0-40.851-18.325-40.851-40.851
			s18.325-40.851,40.851-40.851S296.85,67.074,296.85,89.6S278.525,130.451,255.999,130.451z"/>
	</g>
</g>
<g>
	<g>
		<path d="M507.396,281.058c-4.06-1.974-8.948-0.281-10.919,3.78c-7.9,16.269-24.014,26.387-42.074,26.441l-92.204-159.054
			c-1.853-3.197-5.622-4.752-9.191-3.792s-6.048,4.196-6.048,7.89v154.232c-14.708-2.553-27.339-11.907-34.046-25.716
			c-1.367-2.815-4.221-4.601-7.35-4.601c-3.129,0-5.983,1.787-7.35,4.601c-7.922,16.313-24.099,26.445-42.216,26.445
			s-34.294-10.133-42.216-26.445c-1.367-2.815-4.221-4.601-7.35-4.601c-3.129,0-5.983,1.787-7.35,4.601
			c-7.922,16.313-24.099,26.445-42.216,26.445s-34.294-10.133-42.216-26.445c-1.367-2.815-4.221-4.601-7.35-4.601
			s-5.983,1.787-7.35,4.601c-7.922,16.313-24.099,26.445-42.216,26.445c-18.118,0-34.295-10.133-42.216-26.445
			c-1.971-4.059-6.86-5.747-10.919-3.781c-4.059,1.972-5.752,6.86-3.78,10.919c10.516,21.655,32.857,35.648,56.915,35.648
			c19.409,0,37.699-9.106,49.566-23.996c11.866,14.89,30.157,23.996,49.566,23.996s37.699-9.106,49.566-23.996
			c11.866,14.89,30.156,23.996,49.565,23.996s37.699-9.106,49.566-23.996c10.183,12.778,25.103,21.277,41.395,23.437v60.474H235.303
			c-2.754,0-5.323,1.387-6.832,3.691c-1.51,2.304-1.758,5.211-0.66,7.738l27.945,64.275c-7.752-0.04-15.412-1.999-22.168-5.683
			c-3.962-2.161-8.924-0.702-11.084,3.26c-2.16,3.962-0.701,8.924,3.262,11.084c9.219,5.028,19.675,7.686,30.236,7.686
			c4.223,0,8.388-0.455,12.45-1.284c0.58-0.056,1.159-0.17,1.731-0.354c13.921-3.247,26.467-11.168,35.384-22.358
			c11.866,14.89,30.157,23.996,49.566,23.996s37.699-9.106,49.566-23.996c8.919,11.191,21.466,19.113,35.389,22.359
			c0.576,0.186,1.16,0.303,1.743,0.357c4.058,0.826,8.216,1.28,12.433,1.28c10.56,0,21.015-2.657,30.235-7.684
			c3.962-2.16,5.423-7.122,3.263-11.084c-2.16-3.963-7.123-5.422-11.084-3.263c-6.756,3.683-14.417,5.642-22.168,5.683
			l27.945-64.275c1.098-2.525,0.85-5.434-0.66-7.738s-4.078-3.691-6.832-3.691H363.301V186.706l79.116,136.476
			c0.032,0.057,0.064,0.111,0.097,0.167l18.265,31.507h-72.968c-4.512,0-8.17,3.657-8.17,8.17s3.658,8.17,8.17,8.17h87.148
			c2.922,0,5.621-1.56,7.08-4.092c1.459-2.531,1.454-5.649-0.011-8.177l-18.549-31.997c20.417-3.057,38.541-16.098,47.698-34.956
			C513.148,287.917,511.455,283.028,507.396,281.058z M462.498,403.877l-24.557,56.483c-11.154-4.101-20.465-12.376-25.895-23.558
			c-1.367-2.814-4.221-4.601-7.35-4.601c-3.129,0-5.983,1.788-7.35,4.601c-7.922,16.313-24.099,26.445-42.216,26.445
			c-18.117,0-34.294-10.133-42.216-26.445c-1.367-2.814-4.221-4.601-7.35-4.601c-3.129,0-5.983,1.788-7.35,4.601
			c-5.43,11.182-14.741,19.457-25.895,23.558l-24.557-56.483H462.498z"/>
	</g>
</g>
<g>
	<g>
		<path d="M165.038,376.644h-16.34c-4.512,0-8.17,3.657-8.17,8.17s3.658,8.17,8.17,8.17h16.34c4.512,0,8.17-3.657,8.17-8.17
			S169.551,376.644,165.038,376.644z"/>
	</g>
</g>
<g>
	<g>
		<path d="M65.907,409.325h-16.34c-4.512,0-8.17,3.657-8.17,8.17s3.658,8.17,8.17,8.17h16.34c4.512,0,8.17-3.657,8.17-8.17
			S70.419,409.325,65.907,409.325z"/>
	</g>
</g>
</svg>