<?xml version="1.0" encoding="iso-8859-1"?>
<!-- Uploaded to: SVG Repo, www.svgrepo.com, Generator: SVG Repo Mixer Tools -->
<svg fill="#000000" height="800px" width="800px" version="1.1" id="Layer_1" xmlns="http://www.w3.org/2000/svg" xmlns:xlink="http://www.w3.org/1999/xlink" 
	 viewBox="0 0 511.994 511.994" xml:space="preserve">
<g>
	<g>
		<g>
			<path d="M477.86,63.996c-15.863,0-29.107,10.914-32.922,25.6H426.66c-4.173,0-7.731,3.021-8.414,7.134l-5.922,35.533h-19.797
				V89.596c0-9.412-7.654-17.067-17.067-17.067h-18.876l-4.156-34.193c-1.297-10.539-10.769-18.142-21.478-16.802l-113.98,13.892
				l-0.563-1.877c-1.297-4.378-4.224-7.987-8.235-10.155c-4.002-2.167-8.61-2.654-13.047-1.331L63.405,62.272
				c-4.369,1.297-7.97,4.224-10.146,8.235c-2.176,4.002-2.645,8.61-1.306,13.15l15.505,48.606H42.677
				c-13.466,0-25.847,6.084-33.971,16.683c-8.055,10.505-10.684,23.893-7.202,36.83l43.179,153.847
				c5,18.594,21.948,31.573,41.199,31.573h289.417h0.341h6.75c13.875,0,25.771,10.086,27.068,22.955
				c0.742,7.305-1.562,14.319-6.485,19.772c-4.881,5.385-11.793,8.474-18.978,8.474H363.94
				c-7.049-19.857-25.976-34.133-48.213-34.133s-41.165,14.276-48.213,34.133h-99.84c-7.049-19.857-25.975-34.133-48.213-34.133
				s-41.165,14.276-48.213,34.133h-37.12c-4.719,0-8.533,3.814-8.533,8.533s3.814,8.533,8.533,8.533H68.26
				c0,28.237,22.963,51.2,51.2,51.2s51.2-22.963,51.2-51.2h93.867c0,28.237,22.963,51.2,51.2,51.2c28.237,0,51.2-22.963,51.2-51.2
				h17.067c11.998,0,23.535-5.146,31.633-14.097c8.081-8.934,12.023-20.932,10.82-32.93c-2.074-20.369-19.584-36.565-40.619-38.17
				l42.086-211.806c0.009-0.034-0.009-0.077,0-0.119c0.009-0.051,0.043-0.094,0.051-0.145l5.931-35.533h11.042
				c3.814,14.686,17.058,25.6,32.922,25.6c18.825,0,34.133-15.309,34.133-34.133C511.994,79.305,496.685,63.996,477.86,63.996z
				 M200.041,38.404l2.611,8.772v0.017l10.786,36.301l14.49,48.768H85.378l-17.05-53.649L200.041,38.404z M127.994,311.462h-17.067
				v17.067c0,4.719-3.814,8.533-8.533,8.533s-8.533-3.814-8.533-8.533v-17.067H76.794c-4.719,0-8.533-3.814-8.533-8.533
				s3.814-8.533,8.533-8.533H93.86v-17.067c0-4.719,3.814-8.533,8.533-8.533s8.533,3.814,8.533,8.533v17.067h17.067
				c4.719,0,8.533,3.814,8.533,8.533S132.713,311.462,127.994,311.462z M127.994,209.062h-17.067v17.067
				c0,4.719-3.814,8.533-8.533,8.533s-8.533-3.814-8.533-8.533v-17.067H76.794c-4.719,0-8.533-3.814-8.533-8.533
				s3.814-8.533,8.533-8.533H93.86v-17.067c0-4.719,3.814-8.533,8.533-8.533s8.533,3.814,8.533,8.533v17.067h17.067
				c4.719,0,8.533,3.814,8.533,8.533S132.713,209.062,127.994,209.062z M238.927,311.462H221.86v17.067
				c0,4.719-3.814,8.533-8.533,8.533c-4.719,0-8.533-3.814-8.533-8.533v-17.067h-17.067c-4.719,0-8.533-3.814-8.533-8.533
				s3.814-8.533,8.533-8.533h17.067v-17.067c0-4.719,3.814-8.533,8.533-8.533c4.719,0,8.533,3.814,8.533,8.533v17.067h17.067
				c4.719,0,8.533,3.814,8.533,8.533S243.646,311.462,238.927,311.462z M238.927,209.062H221.86v17.067
				c0,4.719-3.814,8.533-8.533,8.533c-4.719,0-8.533-3.814-8.533-8.533v-17.067h-17.067c-4.719,0-8.533-3.814-8.533-8.533
				s3.814-8.533,8.533-8.533h17.067v-17.067c0-4.719,3.814-8.533,8.533-8.533c4.719,0,8.533,3.814,8.533,8.533v17.067h17.067
				c4.719,0,8.533,3.814,8.533,8.533S243.646,209.062,238.927,209.062z M349.86,311.462h-17.067v17.067
				c0,4.719-3.814,8.533-8.533,8.533c-4.719,0-8.533-3.814-8.533-8.533v-17.067H298.66c-4.719,0-8.533-3.814-8.533-8.533
				s3.814-8.533,8.533-8.533h17.067v-17.067c0-4.719,3.814-8.533,8.533-8.533c4.719,0,8.533,3.814,8.533,8.533v17.067h17.067
				c4.719,0,8.533,3.814,8.533,8.533S354.579,311.462,349.86,311.462z M349.86,209.062h-17.067v17.067
				c0,4.719-3.814,8.533-8.533,8.533c-4.719,0-8.533-3.814-8.533-8.533v-17.067H298.66c-4.719,0-8.533-3.814-8.533-8.533
				s3.814-8.533,8.533-8.533h17.067v-17.067c0-4.719,3.814-8.533,8.533-8.533c4.719,0,8.533,3.814,8.533,8.533v17.067h17.067
				c4.719,0,8.533,3.814,8.533,8.533S354.579,209.062,349.86,209.062z M375.46,132.262H245.737l-12.672-42.667h115.959h26.436
				V132.262z M119.46,473.596c-18.825,0-34.133-15.309-34.133-34.133s15.309-34.133,34.133-34.133s34.133,15.309,34.133,34.133
				S138.285,473.596,119.46,473.596z M315.727,473.596c-18.825,0-34.133-15.309-34.133-34.133s15.309-34.133,34.133-34.133
				c18.825,0,34.133,15.309,34.133,34.133S334.552,473.596,315.727,473.596z M477.86,115.196c-9.412,0-17.067-7.654-17.067-17.067
				c0-9.412,7.654-17.067,17.067-17.067s17.067,7.654,17.067,17.067C494.927,107.541,487.273,115.196,477.86,115.196z"/>
			<path d="M315.727,422.396c-9.421,0-17.067,7.646-17.067,17.067c0,9.421,7.646,17.067,17.067,17.067
				c9.421,0,17.067-7.646,17.067-17.067C332.794,430.042,325.148,422.396,315.727,422.396z"/>
			<path d="M119.46,422.396c-9.421,0-17.067,7.646-17.067,17.067c0,9.421,7.646,17.067,17.067,17.067s17.067-7.646,17.067-17.067
				C136.527,430.042,128.881,422.396,119.46,422.396z"/>
		</g>
	</g>
</g>
</svg>