<?xml version="1.0" encoding="utf-8"?>
<!-- Uploaded to: SVG Repo, www.svgrepo.com, Generator: SVG Repo Mixer Tools -->
<svg fill="#000000" version="1.1" id="earth" xmlns="http://www.w3.org/2000/svg" xmlns:xlink="http://www.w3.org/1999/xlink" 
	 width="800px" height="800px" viewBox="0 0 196 256" enable-background="new 0 0 196 256" xml:space="preserve">
<path d="M79.232,158.234h37.723l50.132-51.566H155.34c0.552-1.765,0.882-3.53,0.882-5.46c0-6.783-3.53-12.795-9.376-16.104
	c0.165-0.827,0.165-1.599,0.165-2.427c0-10.258-8.383-18.641-18.641-18.641c-5.901,0-11.361,2.813-14.835,7.39
	c-1.93-1.765-4.247-3.199-6.839-4.026c-0.552-9.762-8.714-17.483-18.531-17.483c-6.287,0-12.023,3.144-15.387,8.217
	c-2.427-1.103-5.019-1.71-7.666-1.71c-10.258,0-18.641,8.383-18.641,18.641c0,3.309,0.882,6.508,2.482,9.376
	c-5.57,3.309-9.21,9.376-9.21,15.938c0,2.151,0.496,4.247,1.103,6.232H28.935L79.232,158.234z M46.583,100.437
	c0-5.294,3.474-9.927,8.603-11.471l5.294-1.544l-3.861-3.971c-2.151-2.261-3.364-5.239-3.364-8.383
	c0-6.618,5.405-12.023,12.023-12.023c2.482,0,4.908,0.827,7.004,2.261l3.364,2.482l1.599-3.861c1.875-4.522,6.232-7.39,11.03-7.39
	c6.618,0,12.023,5.405,12.023,12.023c0,0.165,0,0.331-0.055,0.496l-0.386,3.805l3.144,0.496c3.53,0.552,6.618,2.647,8.438,5.736
	l3.53,6.067l2.427-6.508c1.71-4.688,6.232-7.831,11.196-7.831c6.618,0,12.023,5.405,12.023,12.023c0,0.993-0.165,2.041-0.551,3.309
	l-0.882,2.923l2.813,1.103c4.688,1.765,7.666,6.232,7.666,11.14c0,2.041-0.552,3.861-1.379,5.46H48.459
	C47.3,104.904,46.583,102.808,46.583,100.437z M118.644,215.096c0-7.527,2.901-15.053,8.624-20.855l34.811-34.811
	c3.685-3.685,9.644-3.685,13.328,0c3.685,3.685,3.685,9.644,0,13.328l-28.068,28.068c-1.254,1.098-1.254,3.058,0,4.312
	c1.254,1.254,3.215,1.254,4.469,0l27.911-27.911c3.058-2.901,4.626-6.899,4.626-11.055s-1.725-8.154-4.626-11.055
	c-1.254-1.411-3.058-2.587-4.783-3.371v-39.593c0-5.253,4.155-9.487,9.33-9.487c5.253,0,9.487,4.312,9.487,9.487V176.6
	c0.157,7.683-2.744,15.994-8.624,21.953l-24.226,24.226c-3.058,3.058-4.626,7.056-4.626,11.055V254h-37.555v-38.904H118.644z
	 M77.356,215.096c0-7.527-2.901-15.053-8.624-20.855L33.921,159.43c-3.685-3.685-9.644-3.685-13.328,0
	c-3.685,3.685-3.685,9.644,0,13.328l28.068,28.068c1.254,1.098,1.254,3.058,0,4.312c-1.254,1.254-3.215,1.254-4.469,0
	l-27.911-27.911c-3.058-2.901-4.626-6.899-4.626-11.055s1.725-8.154,4.626-11.055c1.254-1.411,3.058-2.587,4.783-3.371v-39.593
	c0-5.253-4.155-9.487-9.33-9.487c-5.253,0-9.487,4.312-9.487,9.487V176.6c-0.157,7.683,2.744,15.994,8.624,21.953l24.226,24.226
	c3.058,3.058,4.626,7.056,4.626,11.055V254h37.555v-38.904H77.356z M99.398,42.888c-2.849-2.964-4.418-6.864-4.418-10.982
	c0-3.826,1.499-7.592,4.336-10.892c1.511-1.758,3.276-4.916,3.276-8.032c0-2.979-1.134-5.799-3.193-7.941L102.562,2
	c2.849,2.964,4.418,6.864,4.418,10.982c0,4.312-2.24,8.454-4.336,10.892c-2.173,2.529-3.275,5.231-3.275,8.032
	c0,2.979,1.134,5.799,3.193,7.941L99.398,42.888z M118.311,35.167c-1.451-1.51-2.251-3.499-2.251-5.601
	c0-1.975,0.785-3.89,2.334-5.691c1.641-1.909,3.395-5.158,3.395-8.552c0-3.241-1.235-6.311-3.478-8.642l-3.163,3.042
	c1.452,1.51,2.252,3.5,2.252,5.601c0,2.197-1.258,4.439-2.334,5.692c-2.221,2.583-3.394,5.541-3.394,8.552
	c0,3.242,1.235,6.311,3.477,8.642L118.311,35.167z M86.771,35.167c-1.452-1.51-2.252-3.5-2.252-5.601
	c0-1.975,0.785-3.89,2.334-5.691c1.641-1.909,3.394-5.159,3.394-8.552c0-3.241-1.235-6.31-3.476-8.642l-3.164,3.041
	c1.452,1.511,2.252,3.5,2.252,5.601c0,2.196-1.257,4.439-2.334,5.692c-2.22,2.583-3.394,5.541-3.394,8.551
	c0,3.241,1.235,6.311,3.476,8.642L86.771,35.167z"/>
</svg>