<?xml version="1.0" encoding="utf-8"?><!-- Uploaded to: SVG Repo, www.svgrepo.com, Generator: SVG Repo Mixer Tools -->
<svg fill="#000000" width="800px" height="800px" viewBox="0 0 512 512" id="_01_Store" data-name="01 Store" xmlns="http://www.w3.org/2000/svg">
  <g id="Group_4" data-name="Group 4">
    <g id="Group_3" data-name="Group 3">
      <path id="Path_1" data-name="Path 1" d="M480,448H448V384a32,32,0,0,0-64,0v64H128V384a32,32,0,0,0-64,0v64H32a32,32,0,0,0,0,64H480a32,32,0,0,0,0-64ZM480,0H32A31.991,31.991,0,0,0,0,32V224a64,64,0,0,0,128,0,64,64,0,0,0,128,0,64,64,0,0,0,128,0,64,64,0,0,0,128,0V32A31.991,31.991,0,0,0,480,0Z" fill-rule="evenodd"/>
    </g>
  </g>
</svg>