<?xml version="1.0" encoding="utf-8"?>
<!-- Uploaded to: SVG Repo, www.svgrepo.com, Generator: SVG Repo Mixer Tools -->
<svg fill="#000000" version="1.1" id="Layer_1" xmlns="http://www.w3.org/2000/svg" xmlns:xlink="http://www.w3.org/1999/xlink" 
	 width="800px" height="800px" viewBox="0 0 260 232" enable-background="new 0 0 260 232" xml:space="preserve">
<path d="M258,46H2l32-27h192L258,46z M35,2h189v13H35V2z M233.581,214.079V91.603C247.36,88.031,258,75.579,258,60.677V53H2v7.78
	c0,14.901,10.207,27.251,23.984,30.823v122.476H2V230h256v-15.921H233.581z M41.907,214.079V91.603
	c13.779-3.572,23.984-15.921,23.984-30.823c0,14.901,10.207,27.251,23.984,30.823v122.476H41.907z M217.557,214.079h-57.256v-21.178
	c21.305-0.391,33.527-4.508,33.527-9.532c0-0.943-0.438-1.852-1.277-2.712l-27.446-43.5c-0.476-0.771-0.588-1.713-0.304-2.575
	l4.785-14.372h0.001l0.666-10.053l-6.189-1.431c-1.721-0.398-2.94-1.931-2.94-3.697v-3.425h-8.322v3.425
	c0,1.766-1.219,3.299-2.94,3.697l-6.189,1.431l0.666,10.053l4.762,14.372c0.283,0.862,0.171,1.804-0.304,2.575l-27.423,43.463
	c-0.862,0.871-1.31,1.793-1.31,2.749c0,5.066,12.425,9.21,34.059,9.542v21.168H97.838V92.726c17.657,0,31.946-14.289,31.946-31.946
	c0,11.227,7.524,31.946,31.946,31.946c22.066,0,31.844-21.332,31.844-31.946c0,14.901,10.207,27.251,23.984,30.823V214.079z"/>
</svg>