<?xml version="1.0" encoding="utf-8"?>
<!-- Uploaded to: SVG Repo, www.svgrepo.com, Generator: SVG Repo Mixer Tools -->
<svg width="800px" height="800px" viewBox="0 0 1024 1024" class="icon"  version="1.1" xmlns="http://www.w3.org/2000/svg"><path d="M810.666667 917.333333H213.333333c-46.933333 0-85.333333-38.4-85.333333-85.333333V234.666667c0-46.933333 38.4-85.333333 85.333333-85.333334h597.333334c46.933333 0 85.333333 38.4 85.333333 85.333334v597.333333c0 46.933333-38.4 85.333333-85.333333 85.333333z" fill="#880E4F" /><path d="M339.2 597.333333l44.8-194.133333h59.733333l-76.8 268.8h-55.466666L234.666667 403.2h59.733333l44.8 194.133333zM546.133333 672h-53.333333V403.2h53.333333v268.8zM665.6 578.133333v93.866667h-53.333333V403.2H704c78.933333 0 87.466667 72.533333 87.466667 89.6 0 25.6-10.666667 85.333333-87.466667 85.333333h-38.4z m0-46.933333h36.266667c27.733333 0 32-23.466667 32-40.533333 0-34.133333-19.2-44.8-32-44.8h-36.266667v85.333333z" fill="#FFD54F" /></svg>