<?xml version="1.0" encoding="iso-8859-1"?>
<!-- Uploaded to: SVG Repo, www.svgrepo.com, Generator: SVG Repo Mixer Tools -->
<svg height="800px" width="800px" version="1.1" id="Layer_1" xmlns="http://www.w3.org/2000/svg" xmlns:xlink="http://www.w3.org/1999/xlink" 
	 viewBox="0 0 512 512" xml:space="preserve">
<g transform="translate(1)">
	<g>
		<polygon style="fill:#FFE100;" points="280.6,503.467 229.4,503.467 229.4,358.4 255,332.8 280.6,358.4 		"/>
		<path style="fill:#FFE100;" d="M16.067,230.4c0,65.707,53.76,119.467,119.467,119.467S255,296.107,255,230.4
			s-53.76-119.467-119.467-119.467S16.067,164.693,16.067,230.4"/>
	</g>
	<path style="fill:#FFA800;" d="M135.533,110.933c-4.267,0-8.533,0-12.8,0.853C182.467,117.76,229.4,168.96,229.4,230.4
		s-46.933,112.64-106.667,118.613c4.267,0.853,8.533,0.853,12.8,0.853C201.24,349.867,255,296.107,255,230.4
		S201.24,110.933,135.533,110.933"/>
	<path style="fill:#FFFFFF;" d="M131.267,110.933c4.267,0,8.533,0,12.8,0.853C84.333,117.76,37.4,168.96,37.4,230.4
		s46.933,112.64,106.667,118.613c-4.267,0.853-8.533,0.853-12.8,0.853C65.56,349.867,11.8,296.107,11.8,230.4
		S65.56,110.933,131.267,110.933"/>
	<polygon style="fill:#FFE100;" points="485.4,503.467 434.2,503.467 434.2,358.4 459.8,332.8 485.4,358.4 	"/>
	<polygon style="fill:#FFA800;" points="459.8,332.8 447,345.6 459.8,358.4 459.8,503.467 485.4,503.467 485.4,358.4 	"/>
	<polygon style="fill:#FFFFFF;" points="255,332.8 267.8,345.6 255,358.4 255,503.467 229.4,503.467 229.4,358.4 	"/>
	<g>
		<polygon style="fill:#FFE100;" points="434.2,503.467 383,503.467 383,358.4 408.6,332.8 434.2,358.4 		"/>
		<polygon style="fill:#FFE100;" points="383,503.467 331.8,503.467 331.8,358.4 357.4,332.8 383,358.4 		"/>
		<polygon style="fill:#FFE100;" points="331.8,503.467 280.6,503.467 280.6,358.4 306.2,332.8 331.8,358.4 		"/>
		<path style="fill:#FFE100;" d="M480.28,138.24c11.947,0,22.187,11.093,22.187,24.747l0,0c0,13.653-10.24,24.747-22.187,24.747
			h-96.427h-3.413c-17.92,0-32.427-15.36-32.427-34.987s14.507-34.987,32.427-34.987c0,0,17.067-32.427,53.76-32.427
			c23.04,0,42.667,17.067,42.667,52.907L480.28,138.24L480.28,138.24z"/>
	</g>
	<path style="fill:#FFA800;" d="M480.28,138.24h-3.413c0-36.693-19.627-52.907-42.667-52.907c-5.12,0-9.387,0.853-14.507,1.707
		c17.92,5.12,31.573,21.333,31.573,51.2h3.413c11.947,0,22.187,11.093,22.187,24.747s-10.24,24.747-22.187,24.747h25.6
		c11.947,0,22.187-11.093,22.187-24.747S492.227,138.24,480.28,138.24"/>
	<g>
		<path style="fill:#FFE100;" d="M255,76.8c-5.12,0-8.533-3.413-8.533-8.533c0-33.28,26.453-59.733,59.733-59.733
			c5.12,0,8.533,3.413,8.533,8.533S311.32,25.6,306.2,25.6c-23.893,0-42.667,18.773-42.667,42.667
			C263.533,73.387,260.12,76.8,255,76.8z"/>
		<path style="fill:#FFE100;" d="M255,76.8c-5.12,0-8.533-3.413-8.533-8.533c0-18.773-15.36-34.133-34.133-34.133
			c-5.12,0-8.533-3.413-8.533-8.533s3.413-8.533,8.533-8.533c28.16,0,51.2,23.04,51.2,51.2C263.533,73.387,260.12,76.8,255,76.8z"/>
	</g>
	<path d="M135.533,358.4c-70.827,0-128-57.173-128-128s57.173-128,128-128s128,57.173,128,128S206.36,358.4,135.533,358.4z
		 M135.533,119.467C74.093,119.467,24.6,168.96,24.6,230.4s49.493,110.933,110.933,110.933S246.467,291.84,246.467,230.4
		S196.973,119.467,135.533,119.467z"/>
	<path d="M135.533,290.133c-2.56,0-4.267-0.853-5.973-2.56c-3.413-3.413-3.413-8.533,0-11.947l25.6-25.6
		c3.413-3.413,8.533-3.413,11.947,0s3.413,8.533,0,11.947l-25.6,25.6C139.8,289.28,138.093,290.133,135.533,290.133z"/>
	<path d="M135.533,290.133c-2.56,0-4.267-0.853-5.973-2.56l-25.6-25.6c-3.413-3.413-3.413-8.533,0-11.947s8.533-3.413,11.947,0
		l25.6,25.6c3.413,3.413,3.413,8.533,0,11.947C139.8,289.28,138.093,290.133,135.533,290.133z"/>
	<path d="M135.533,512c-5.12,0-8.533-3.413-8.533-8.533V281.6c0-5.12,3.413-8.533,8.533-8.533s8.533,3.413,8.533,8.533v221.867
		C144.067,508.587,140.653,512,135.533,512z"/>
	<path d="M502.467,512H7.533C2.413,512-1,508.587-1,503.467c0-5.12,3.413-8.533,8.533-8.533h494.933c5.12,0,8.533,3.413,8.533,8.533
		C511,508.587,507.587,512,502.467,512z"/>
	<path d="M485.4,512h-51.2c-5.12,0-8.533-3.413-8.533-8.533V358.4c0-2.56,0.853-4.267,2.56-5.973l25.6-25.6
		c3.413-3.413,8.533-3.413,11.947,0l25.6,25.6c1.707,1.707,2.56,3.413,2.56,5.973v145.067C493.933,508.587,490.52,512,485.4,512z
		 M442.733,494.933h34.133v-133.12L459.8,344.747l-17.067,17.067V494.933z"/>
	<path d="M434.2,512H383c-5.12,0-8.533-3.413-8.533-8.533V358.4c0-2.56,0.853-4.267,2.56-5.973l25.6-25.6
		c3.413-3.413,8.533-3.413,11.947,0l25.6,25.6c1.707,1.707,2.56,3.413,2.56,5.973v145.067C442.733,508.587,439.32,512,434.2,512z
		 M391.533,494.933h34.133v-133.12L408.6,344.747l-17.067,17.067V494.933z"/>
	<path d="M383,512h-51.2c-5.12,0-8.533-3.413-8.533-8.533V358.4c0-2.56,0.853-4.267,2.56-5.973l25.6-25.6
		c3.413-3.413,8.533-3.413,11.947,0l25.6,25.6c1.707,1.707,2.56,3.413,2.56,5.973v145.067C391.533,508.587,388.12,512,383,512z
		 M340.333,494.933h34.133v-133.12L357.4,344.747l-17.067,17.067V494.933z"/>
	<path d="M331.8,512h-51.2c-5.12,0-8.533-3.413-8.533-8.533V358.4c0-2.56,0.853-4.267,2.56-5.973l25.6-25.6
		c3.413-3.413,8.533-3.413,11.947,0l25.6,25.6c1.707,1.707,2.56,3.413,2.56,5.973v145.067C340.333,508.587,336.92,512,331.8,512z
		 M289.133,494.933h34.133v-133.12L306.2,344.747l-17.067,17.067V494.933z"/>
	<path d="M280.6,512h-51.2c-5.12,0-8.533-3.413-8.533-8.533V358.4c0-2.56,0.853-4.267,2.56-5.973l25.6-25.6
		c3.413-3.413,8.533-3.413,11.947,0l25.6,25.6c1.707,1.707,2.56,3.413,2.56,5.973v145.067C289.133,508.587,285.72,512,280.6,512z
		 M237.933,494.933h34.133v-133.12L255,344.747l-17.067,17.067V494.933z"/>
	<path d="M480.28,196.267h-98.987c-22.187,0-40.96-19.627-40.96-43.52c0-22.187,15.36-40.96,35.84-43.52
		C383,99.84,401.773,76.8,434.2,76.8c23.893,0,47.787,17.067,51.2,53.76c14.507,2.56,25.6,16.213,25.6,32.427
		C511,181.76,497.347,196.267,480.28,196.267z M434.2,93.867c-30.72,0-45.227,26.453-46.08,28.16
		c-1.707,2.56-4.267,4.267-7.68,4.267c-12.8,0-23.893,11.947-23.893,26.453s10.24,26.453,23.893,26.453h98.987
		c7.68,0,13.653-6.827,13.653-16.213s-5.973-16.213-13.653-16.213h-2.56c-5.12,0-8.533-3.413-8.533-8.533
		C468.333,110.933,455.533,93.867,434.2,93.867z"/>
	<path d="M255,68.267c-5.12,0-8.533-3.413-8.533-8.533C246.467,26.453,272.92,0,306.2,0c5.12,0,8.533,3.413,8.533,8.533
		s-3.413,8.533-8.533,8.533c-23.893,0-42.667,18.773-42.667,42.667C263.533,64.853,260.12,68.267,255,68.267z"/>
	<path d="M255,68.267c-5.12,0-8.533-3.413-8.533-8.533c0-18.773-15.36-34.133-34.133-34.133c-5.12,0-8.533-3.413-8.533-8.533
		s3.413-8.533,8.533-8.533c28.16,0,51.2,23.04,51.2,51.2C263.533,64.853,260.12,68.267,255,68.267z"/>
</g>
</svg>