<?xml version="1.0" encoding="utf-8"?>
<!-- Uploaded to: SVG Repo, www.svgrepo.com, Generator: SVG Repo Mixer Tools -->
<svg width="800px" height="800px" viewBox="0 0 1024 1024" class="icon"  version="1.1" xmlns="http://www.w3.org/2000/svg"><path d="M290.7 607.6h549.4v310.9H290.7z" fill="#89B7F5" /><path d="M840 933.4H290.7c-8.3 0-15-6.7-15-15V607.5c0-8.3 6.7-15 15-15H840c8.3 0 15 6.7 15 15v310.9c0 8.3-6.7 15-15 15z m-534.3-30H825V622.5H305.7v280.9z" fill="#0F53A8" /><path d="M946.3 823.7s-132.4-4.7-223.5 11.4c-109.7 19.4-251.7-40.2-331.7-34.1-91.4 6.9-206.6 22.7-206.6 22.7l56.9-499.3c0-44.6 36.2-80.8 80.8-80.8h486.5c44.6 0 80.8 36.2 80.8 80.8l56.8 499.3z" fill="#B6CDEF" /><path d="M674.8 853.9c-52.7 0-108.5-11.4-159.2-21.7-47.1-9.6-91.7-18.7-123.4-16.3-89.9 6.8-204.6 22.5-205.7 22.7-4.6 0.6-9.2-0.9-12.5-4.1-3.3-3.2-4.9-7.8-4.4-12.4l56.8-498.4c0.5-52.4 43.3-94.9 95.8-94.9h486.5c52.5 0 95.3 42.5 95.8 94.9L961.2 822c0.5 4.3-0.9 8.7-3.9 11.9s-7.2 5-11.5 4.8c-1.3 0-131.9-4.5-220.3 11.2-16.4 2.8-33.4 4-50.7 4z m-271.7-68.4c33.8 0 75.1 8.4 118.6 17.3 64.7 13.2 138 28.2 198.6 17.5 72.9-12.9 170-12.7 209.2-12l-54.9-482.1c-0.1-0.6-0.1-1.1-0.1-1.7 0-36.3-29.5-65.8-65.8-65.8H322.1c-36.3 0-65.8 29.5-65.8 65.8 0 0.6 0 1.1-0.1 1.7l-54.7 480.2c36.7-4.8 119.7-15.1 188.4-20.3 4.3-0.5 8.6-0.6 13.2-0.6z" fill="#0F53A8" /><path d="M290.7 928.9m-51.2 0a51.2 51.2 0 1 0 102.4 0 51.2 51.2 0 1 0-102.4 0Z" fill="#B6CDEF" /><path d="M290.7 995c-36.5 0-66.2-29.7-66.2-66.2s29.7-66.2 66.2-66.2 66.2 29.7 66.2 66.2-29.7 66.2-66.2 66.2z m0-102.3c-20 0-36.2 16.2-36.2 36.2s16.2 36.2 36.2 36.2 36.2-16.2 36.2-36.2-16.3-36.2-36.2-36.2z" fill="#0F53A8" /><path d="M840 928.9m-51.2 0a51.2 51.2 0 1 0 102.4 0 51.2 51.2 0 1 0-102.4 0Z" fill="#B6CDEF" /><path d="M840 995c-36.5 0-66.2-29.7-66.2-66.2s29.7-66.2 66.2-66.2 66.2 29.7 66.2 66.2S876.5 995 840 995z m0-102.3c-20 0-36.2 16.2-36.2 36.2S820.1 965 840 965s36.2-16.2 36.2-36.2-16.2-36.1-36.2-36.1zM290.7 264.9c-5.3 0-10.5-2.8-13.2-7.9l-102-188H76.4c-8.3 0-15-6.7-15-15s6.7-15 15-15h108.1c5.5 0 10.6 3 13.2 7.9l106.2 195.9c3.9 7.3 1.2 16.4-6 20.3-2.4 1.3-4.8 1.8-7.2 1.8zM290.5 745.8c-0.7 0-1.3 0-2-0.1-8.2-1.1-14-8.6-12.9-16.8L327 342.1c1.1-8.2 8.6-14 16.8-12.9 8.2 1.1 14 8.6 12.9 16.8l-51.4 386.7c-1 7.6-7.4 13.1-14.8 13.1zM387.2 745.8c-0.8 0-1.6-0.1-2.3-0.2-8.2-1.3-13.8-9-12.5-17.1l30.3-193.4c1.3-8.2 9-13.8 17.1-12.5 8.2 1.3 13.8 9 12.5 17.1L402 733.1c-1.2 7.4-7.6 12.7-14.8 12.7zM565.4 94.9c-8.3 0-15-6.7-15-15V27c0-8.3 6.7-15 15-15s15 6.7 15 15v52.9c0 8.3-6.8 15-15 15z" fill="#0F53A8" /><path d="M565.4 54C479.6 54 410 123.6 410 209.4h310.8c0-85.8-69.6-155.4-155.4-155.4z" fill="#89B7F5" /><path d="M720.8 224.4H409.9c-8.3 0-15-6.7-15-15 0-94 76.4-170.4 170.4-170.4s170.4 76.4 170.4 170.4c0.1 8.3-6.6 15-14.9 15z m-295.1-30H705C697.5 124 637.7 69 565.4 69s-132.1 55-139.7 125.4z" fill="#0F53A8" /></svg>