<?xml version="1.0" encoding="utf-8"?>

<!DOCTYPE svg PUBLIC "-//W3C//DTD SVG 1.1//EN" "http://www.w3.org/Graphics/SVG/1.1/DTD/svg11.dtd">
<!-- Uploaded to: SVG Repo, www.svgrepo.com, Generator: SVG Repo Mixer Tools -->
<svg height="800px" width="800px" version="1.1" id="_x32_" xmlns="http://www.w3.org/2000/svg" xmlns:xlink="http://www.w3.org/1999/xlink" 
	 viewBox="0 0 512 512"  xml:space="preserve">
<style type="text/css">
	.st0{fill:#000000;}
</style>
<g>
	<path class="st0" d="M454.588,223.298c-15.573-6.699-67.901-46.34-108.06-75.581c39.715-17.378,79.542-45.406,80.43-57.038
		c1.472-19.08-52.855-48.432-67.512-54.317c-14.712-5.866-58.055,10.29-76.599,9.309c-27.889-1.471-1.48,45.508,13.196,45.508
		c14.694,0,47.247-10.772,51.652-3.433c3.59,5.996,2.498,22.291-19.312,46.83c-6.782-4.904-12.778-9.188-17.646-12.565
		c-33.766-23.494-57.25-58.722-57.25-58.722s0,0-5.876-14.676c-5.867-14.676-101.296,1.462-101.296,1.462s0-11.743-13.205-19.081
		c-13.213-7.328-58.722-10.271-55.779,10.281c2.942,20.551-59.647,129.593-67.532,139.456c-5.866,7.33,1.481,13.196,22.014,2.934
		c6.07-3.044,15.175-10.77,25.151-20.403c3.46,9.549,8.078,21.541,13.037,32.146c4.867,10.419,6.755,20.505,10.679,26.372
		c-33.904,29.314-66.05,50.134-73.814,54.363c-16.139,8.8-5.877,16.147,52.855,11.742c16.961-1.276,37.152-12.011,57.602-27.723
		c2.258,6.348,8.55,9.818,18.728,7.172c33.738-8.809,174.685-23.494,193.756-32.294c4.266-1.953,5.959-5.524,5.709-9.864
		c48.266,39.558,78.598,77.644,99.363,72.916C531.817,276.07,536.213,258.442,454.588,223.298z M111.622,192.799
		c-8.198-16.879-26.742-36.255-37.624-46.804c5.219-5.524,10.364-11.132,15.148-16.452c7.726,16.795,20.561,39.067,37.411,47.099
		C121.746,182.157,116.749,187.561,111.622,192.799z M155.687,136.353c-18.219-9.864-40.492-18.636-52.373-23.06
		c5.478-6.431,9.382-11.307,10.724-13.306c5.858-8.808,55.752-4.404,54.308,7.329C165.468,117.033,161.11,126.749,155.687,136.353z
		 M288.714,186.599c-27.446,1.434-110.93,22.153-118.592,23.438c29.426-33.099,53.18-68.761,59.888-89.508
		c3.701,10.105,28.574,36.55,60.896,66.032C290.176,186.563,289.444,186.563,288.714,186.599z"/>
	<path class="st0" d="M272.39,323.401c35.996-6.7,65.569-12.03,73.564-12.03c20.57,0,42.566,4.405,48.46-5.866
		c5.858-10.272-4.414-52.855-64.606-51.375c-60.194,1.462-212.836,35.228-212.836,35.228c-39.641,10.262-63.145,0-60.184,14.685
		c3.258,16.397,8.79,48.432,57.25,45.49c3.303-0.185,7.171-0.556,11.456-1.037c-6.468,4.738-15.333,10.771-27.622,18.664
		c-41.084,26.409-61.738,24.605-70.454,57.242c-5.866,22.023,17.619,57.25,71.936,29.36c54.299-27.89,57.25-102.75,57.25-102.75
		c0.352-1.48,0.175-3.979-0.379-6.801c12.066-1.906,25.427-4.174,39.28-6.654c-0.38,10.105-0.732,21.524-0.732,26.659
		c0,10.281,5.867,73.398,1.462,71.926c-4.404-1.462-48.451-19.08-48.451-19.08s-13.214,2.943-4.404,14.676
		c8.809,11.752,41.103,26.427,55.788,41.112c14.685,14.667,55.788,22.014,68.992-1.47c13.205-23.486,2.943-74.86,0-96.883
		C266.06,358.693,269.994,335.337,272.39,323.401z"/>
	<path class="st0" d="M334.221,320.181c-13.213-1.48-29.37,4.405-19.081,22.005c13.214,22.698,44.047,71.953,39.624,83.687
		c-4.405,11.743-15.768,14.316-9.901,17.248c5.876,2.924,34.866,32.665,70.084,12.114c35.237-20.552,46.979-41.095,5.885-85.141
		C379.729,326.047,347.426,321.661,334.221,320.181z"/>
</g>
</svg>