<?xml version="1.0" encoding="utf-8"?><!-- Uploaded to: SVG Repo, www.svgrepo.com, Generator: SVG Repo Mixer Tools -->
<svg width="800px" height="800px" viewBox="0 0 20 20" xmlns="http://www.w3.org/2000/svg">
  <g id="arrival-left" transform="translate(-2 -2)">
    <path id="secondary" fill="#2ca9bc" d="M5.14,9.56A4.2,4.2,0,0,1,7.21,8.38l9.26-2.24.29-1.69a1.12,1.12,0,0,1,.84-.93L19.75,3,20,8.74a1.18,1.18,0,0,1-.74,1.13l-3.9,1.46,3.12,2.59-3.32.7a1,1,0,0,1-.62-.08l-3.12-1.43a.9.9,0,0,0-.75,0l-5,1.86a.91.91,0,0,1-1.19-.52l-.24-.61a4.17,4.17,0,0,1,.9-4.28Z"/>
    <path id="primary" d="M3,21H21M4.25,13.81l.24.61a.91.91,0,0,0,1.19.52l5-1.86a.9.9,0,0,1,.75,0l3.12,1.43a1,1,0,0,0,.62.08l3.32-.7L15.37,11.3l3.9-1.46A1.18,1.18,0,0,0,20,8.74L19.75,3l-2.15.52a1.12,1.12,0,0,0-.84.93l-.29,1.69L7.21,8.38a4.13,4.13,0,0,0-3,5.43Z" fill="none" stroke="#000000" stroke-linecap="round" stroke-linejoin="round" stroke-width="2"/>
  </g>
</svg>