<?xml version="1.0" ?>
<!-- Uploaded to: SVG Repo, www.svgrepo.com, Generator: SVG Repo Mixer Tools -->
<svg width="800px" height="800px" viewBox="0 0 512 512" id="Layer_1" version="1.1" xml:space="preserve" xmlns="http://www.w3.org/2000/svg" xmlns:xlink="http://www.w3.org/1999/xlink">
<style type="text/css">
	.st0{fill:#333333;}
</style>
<g>
<path class="st0" d="M149.4,425.7c1.9-0.2,3.9-0.3,5.9-0.4L269,298.7c-4.3-4.7-7.8-10-10.4-15.7l-211-34.5   C48.2,323.8,88.9,389.7,149.4,425.7z"/>
<path class="st0" d="M314,196.6c9.4,0,18.4,2.1,26.6,6.1h0l43.8-120.2c-35.4-27.8-80-44.3-128.5-44.3c-14.7,0-29.1,1.5-42.9,4.4   L298,198.8C303.2,197.4,308.6,196.6,314,196.6z"/>
<path class="st0" d="M294.2,315.3l-0.9,1.4c0,0-11.9-7.5-12-7.5l-1.9-1.2l-105.9,118l6.3,0.4l0.4,0c6.6,0.8,13.6,2,20.6,3.6   c9.9,2.3,19.9,3.4,29.9,3.4c31.2,0,58-11.1,81.7-20.8c8-3.3,15.6-6.4,23-9c1.2-0.4,2.4-0.8,3.6-1.2l-5.7-86.9   c-6.2,2.1-12.7,3.2-19.4,3.2C307.3,318.6,300.6,317.4,294.2,315.3z"/>
<path class="st0" d="M361,260c0-0.8,0.1-1.6,0.1-2.4c0-12.8-5.1-24.4-13.5-32.9c-8.5-8.7-20.4-14.1-33.5-14.1   c-8.1,0-15.8,2.1-22.4,5.7c-2.6,1.4-5,3.1-7.3,4.9c-0.4,0.3-0.9,0.7-1.3,1.1c-0.1,0.1-0.3,0.3-0.4,0.4c-0.4,0.4-0.8,0.7-1.2,1.1   c-0.4,0.4-0.8,0.7-1.1,1.1c-0.2,0.2-0.5,0.5-0.7,0.7c-0.4,0.4-0.7,0.8-1.1,1.2c-1,1.2-2,2.4-3,3.8c0,0,0,0,0,0   c-0.7,1-1.4,2.1-2.1,3.2c-0.2,0.4-0.4,0.7-0.6,1.1c-0.4,0.8-0.8,1.5-1.2,2.3c-0.2,0.4-0.4,0.8-0.6,1.2c-0.2,0.4-0.3,0.8-0.5,1.2   c0,0,0,0,0,0c-0.2,0.4-0.3,0.8-0.5,1.2c0,0,0,0,0,0c-0.1,0.4-0.3,0.8-0.4,1.2c0,0,0,0,0,0c-0.1,0.4-0.3,0.8-0.4,1.2c0,0,0,0,0,0   c-0.1,0.4-0.3,0.8-0.4,1.2c0,0,0,0,0,0c-0.1,0.4-0.2,0.8-0.3,1.2c0,0,0,0,0,0c-0.1,0.4-0.2,0.9-0.3,1.3c0,0,0,0,0,0   c-0.1,0.4-0.2,0.9-0.3,1.3c0,0,0,0,0,0c-0.1,0.4-0.2,0.9-0.2,1.3c0,0,0,0,0,0c-0.1,0.4-0.1,0.9-0.2,1.3c0,0,0,0,0,0   c-0.1,0.4-0.1,0.9-0.2,1.3v0c0,0.4-0.1,0.9-0.1,1.3v0.1c0,0,0,0,0,0c0,0,0,0,0,0.1c0,0.4-0.1,0.8-0.1,1.2v0c0,0.4,0,0.9-0.1,1.3v0   c0,0.4,0,0.9,0,1.4c0,1.3,0.1,2.6,0.2,3.8c0.1,0.6,0.1,1.3,0.2,1.9c0.1,0.6,0.2,1.3,0.3,1.9c0.1,0.4,0.1,0.8,0.2,1.1   c-0.1-0.4-0.1-0.8-0.2-1.1c0.1,0.5,0.2,0.9,0.2,1.4c0.1,0.7,0.3,1.4,0.5,2.1c0.1,0.3,0.2,0.7,0.3,1c0.1,0.2,0.1,0.5,0.2,0.7l0,0   l0,0c1.6,5.6,4.2,10.8,7.6,15.4c3.4,4.5,7.7,8.5,12.5,11.5c3.6,2.3,7.6,4.1,11.8,5.3c4.2,1.2,8.7,1.9,13.3,1.9   c6.5,0,12.8-1.3,18.5-3.8C348.6,293.9,360,278.3,361,260z"/>
<path class="st0" d="M47.9,234.3l205.6,33.6l-0.5-1.6l0.5-0.5c-0.4-2.8-0.6-5.5-0.6-8.2c0-18.4,8.2-35.6,22.4-47.2   c2.9-2.4,6.1-4.6,9.4-6.4c0,0,0,0,0,0L199,46.1c-40.7,11.6-76.4,35.2-102.8,66.8c-10.2,12.2-19,25.6-26.3,39.9   c7.2-14.3,16.1-27.7,26.3-39.9C68.3,146.1,50.6,188.2,47.9,234.3L47.9,234.3L47.9,234.3z M96.5,198.8c8.6-28.7,24.8-54.6,46.9-74.9   c2.8-2.6,7.3-2.4,9.9,0.4c2.6,2.8,2.4,7.3-0.4,9.9c-20.3,18.6-35.1,42.3-43,68.6c-0.9,3-3.7,5-6.7,5c-0.7,0-1.3-0.1-2-0.3   C97.5,206.4,95.4,202.5,96.5,198.8z"/>
<path class="st0" d="M357.5,214.9c11.3,11.5,17.5,26.6,17.5,42.7c0,0.7,0,1.4,0,2.1l89.1-1.6c0.2-3.8,0.3-7.7,0.3-11.5   c0-61.3-26.4-116.3-68.5-154.5l-43.2,118.4C354.4,211.9,356,213.3,357.5,214.9z"/>
<path class="st0" d="M366.3,397.3c4.6,0,9.1,0.6,13.3,1.6c1.9,0.5,3.6,1,5.2,1.6c2.8,0.9,5.5,2,8,3.3c18.4-16,33.9-35.2,45.8-56.7   c6.5-11.9,12-24.5,16.1-37.6c3.8-12,6.5-24.4,8.1-37.3l-90,1.6c-4,14.4-13.2,26.9-25.7,35.1l5.9,89.8   C357.8,397.8,362.1,397.3,366.3,397.3z"/>
<path class="st0" d="M380.4,413.8c-1.5-0.5-2.9-0.9-4.3-1.3c-10.8-2.8-22.7-0.4-36,4.2c-35.7,12.4-81.5,40.8-142.3,26.8   c-6.8-1.6-13.1-2.7-19.1-3.4l-17-1.1c-54.5,0-71.3,34.7-71.3,34.7l374-9.7C413.9,462.5,413.4,424.6,380.4,413.8z"/>
</g>
</svg>